<svg id="Layer_1" data-name="Layer 1" xmlns="http://www.w3.org/2000/svg" viewBox="0 0 428.26 429.16"><defs><style>.cls-1{fill:#ffde44;}.cls-2{fill:#ffce00;}.cls-3{fill:#fe8;}.cls-4{fill:none;}.cls-5{fill:#fff39f;}.cls-6{fill:#ffe35b;}.cls-7{fill:#ffe872;}.cls-8{fill:#ffd317;}.cls-9{fill:#ffd92d;}</style></defs><polygon class="cls-1" points="176.37 136.24 219.23 136.24 219.07 136.8 269.39 312.92 226.85 312.92 176.37 136.24"/><polygon class="cls-2" points="151.39 136.24 108.86 136.24 159.34 312.92 201.87 312.92 151.39 136.24"/><polygon class="cls-3" points="260.63 193.07 281.9 267.51 319.4 136.24 276.55 136.24 276.71 136.8 260.63 193.07"/><polygon class="cls-4" points="214.13 214.58 214.13 214.58 214.13 214.58 214.13 214.58 214.13 214.58 214.13 214.58"/><polygon class="cls-4" points="214.13 214.58 214.13 214.58 214.13 214.58 214.13 214.58 214.13 214.58 214.13 214.58"/><path class="cls-5" d="M51.9,249.73l-.41-4.92H14.09l.4,5.74a192.09,192.09,0,0,0,13.16,57.57l34.53-14.34A155.3,155.3,0,0,1,51.9,249.73Z" transform="translate(-14.09 -10.22)"/><path class="cls-6" d="M228.18,402a186.91,186.91,0,0,1-67.92-12.68L146,424a224.73,224.73,0,0,0,82.23,15.41h0V402Z" transform="translate(-14.09 -10.22)"/><path class="cls-1" d="M228.22,402v37.36a224.71,224.71,0,0,0,82.66-15.6l-14.37-34.6A187,187,0,0,1,228.22,402Z" transform="translate(-14.09 -10.22)"/><path class="cls-3" d="M62.18,293.78,27.65,308.12a201.43,201.43,0,0,0,47.16,70.1l26.47-26.47A164.14,164.14,0,0,1,62.18,293.78Z" transform="translate(-14.09 -10.22)"/><path class="cls-7" d="M107.74,357.67q-3.31-2.88-6.46-5.92L74.81,378.22c.77.75,1.54,1.5,2.33,2.25A215.36,215.36,0,0,0,146,424l14.31-34.63A178.67,178.67,0,0,1,107.74,357.67Z" transform="translate(-14.09 -10.22)"/><path class="cls-8" d="M355.12,351.7l26.47,26.47a201.43,201.43,0,0,0,47.28-70.49L394.3,293.4A164.22,164.22,0,0,1,355.12,351.7Z" transform="translate(-14.09 -10.22)"/><path class="cls-9" d="M348.61,357.67a178.69,178.69,0,0,1-52.1,31.52l14.37,34.6a215.34,215.34,0,0,0,68.33-43.32c.8-.76,1.59-1.53,2.38-2.3L355.12,351.7Q352,354.76,348.61,357.67Z" transform="translate(-14.09 -10.22)"/><path class="cls-2" d="M442,224.81c0-.55-.06-1.1-.1-1.65l-.35-5H366.42v37.36h37.45a155.36,155.36,0,0,1-9.57,37.87l34.57,14.28a192,192,0,0,0,13-57.13c.33-4.66.49-9.27.49-13.7C442.35,233,442.22,228.9,442,224.81Z" transform="translate(-14.09 -10.22)"/><path class="cls-8" d="M101.32,97.91,74.85,71.44a201.43,201.43,0,0,0-47.28,70.49l34.57,14.28A164.22,164.22,0,0,1,101.32,97.91Z" transform="translate(-14.09 -10.22)"/><path class="cls-9" d="M107.83,91.94a178.69,178.69,0,0,1,52.1-31.52l-14.37-34.6A215.45,215.45,0,0,0,77.23,69.14c-.8.76-1.59,1.53-2.38,2.3l26.47,26.47Q104.49,94.85,107.83,91.94Z" transform="translate(-14.09 -10.22)"/><path class="cls-2" d="M52.58,194.08a154.89,154.89,0,0,1,9.56-37.87L27.57,141.93a192.34,192.34,0,0,0-13,57.13c-.33,4.66-.49,9.27-.49,13.7,0,3.9.14,8,.39,12.05,0,.54.06,1.09.1,1.64l.35,5H94.57V194.08Z" transform="translate(-14.09 -10.22)"/><path class="cls-5" d="M404.54,199.88l.41,4.92h37.4l-.4-5.74a192.09,192.09,0,0,0-13.16-57.57l-34.53,14.35A154.82,154.82,0,0,1,404.54,199.88Z" transform="translate(-14.09 -10.22)"/><path class="cls-6" d="M228.27,47.58a186.89,186.89,0,0,1,67.91,12.68l14.31-34.63a224.71,224.71,0,0,0-82.22-15.41h-.05V47.58Z" transform="translate(-14.09 -10.22)"/><path class="cls-1" d="M228.22,47.58V10.22a224.71,224.71,0,0,0-82.66,15.6l14.37,34.6A187,187,0,0,1,228.22,47.58Z" transform="translate(-14.09 -10.22)"/><path class="cls-3" d="M394.26,155.84l34.53-14.35a201.43,201.43,0,0,0-47.16-70.1L355.16,97.86A164.09,164.09,0,0,1,394.26,155.84Z" transform="translate(-14.09 -10.22)"/><path class="cls-7" d="M348.7,91.94q3.33,2.88,6.46,5.92l26.47-26.47c-.77-.75-1.54-1.5-2.33-2.25a215.36,215.36,0,0,0-68.81-43.51L296.18,60.26A178.67,178.67,0,0,1,348.7,91.94Z" transform="translate(-14.09 -10.22)"/></svg>