<?xml version="1.0" encoding="utf-8"?>
<!-- Generator: Adobe Illustrator 24.1.3, SVG Export Plug-In . SVG Version: 6.00 Build 0)  -->
<svg version="1.0" id="Layer_1" xmlns="http://www.w3.org/2000/svg" xmlns:xlink="http://www.w3.org/1999/xlink" x="0px" y="0px"
	 viewBox="0 0 720 720" style="enable-background:new 0 0 720 720;" xml:space="preserve">
<style type="text/css">
	.st0{fill:#FFDE44;}
	.st1{fill:#FFCE00;}
	.st2{fill:#FFEE88;}
	.st3{fill:#FFF39F;}
	.st4{fill:#FFE35B;}
	.st5{fill:#FFE872;}
	.st6{fill:#FFD317;}
	.st7{fill:#FFD92D;}
	.st8{fill:#15173F;}
	.st9{fill:#231F20;}
</style>
<g>
	<g>
		<polygon class="st0" points="321.27,195.52 365.23,195.52 365.07,196.09 416.68,376.73 373.05,376.73 		"/>
		<polygon class="st1" points="295.65,195.52 252.03,195.52 303.8,376.73 347.43,376.73 		"/>
		<polygon class="st2" points="407.69,253.8 429.51,330.15 467.97,195.52 424.02,195.52 424.19,196.09 		"/>
		<path class="st3" d="M179.16,301.44l-0.42-5.05h-38.36l0.41,5.89c1.43,20.26,5.98,40.18,13.5,59.05l35.42-14.71
			C184,332.15,180.45,316.93,179.16,301.44"/>
		<path class="st4" d="M359.96,457.61c-23.83,0.03-47.45-4.38-69.66-13l-14.63,35.57c26.88,10.5,55.49,15.86,84.34,15.81v-38.37
			H359.96z"/>
		<path class="st0" d="M360,457.61v38.32c29.02,0.05,57.78-5.38,84.78-16l-14.74-35.49C407.72,453.17,383.97,457.64,360,457.61"/>
		<path class="st2" d="M189.7,346.62l-35.42,14.71c10.86,27.12,27.35,51.62,48.37,71.9l27.15-27.15
			C212.32,389.37,198.64,369.08,189.7,346.62"/>
		<path class="st5" d="M236.43,412.15c-2.26-1.97-4.47-3.99-6.63-6.07l-27.15,27.15c0.79,0.77,1.58,1.54,2.39,2.31
			c20.49,19.24,44.46,34.39,70.63,44.65l14.68-35.52C270.63,437.01,252.39,426.01,236.43,412.15"/>
		<path class="st6" d="M490.16,406.02l27.15,27.15c21.12-20.38,37.65-45.03,48.49-72.3l-35.46-14.65
			C521.42,368.82,507.71,389.22,490.16,406.02"/>
		<path class="st7" d="M483.48,412.15c-15.83,13.75-33.91,24.69-53.44,32.33l14.74,35.49c25.96-10.25,49.74-25.33,70.08-44.43
			c0.82-0.78,1.63-1.57,2.44-2.36l-27.15-27.15C488.02,408.11,485.8,410.16,483.48,412.15"/>
		<path class="st1" d="M579.27,275.88c0-0.56-0.06-1.13-0.1-1.69l-0.36-5.13h-77.06v38.32h38.41c-1.62,13.31-4.92,26.36-9.82,38.84
			l35.46,14.65c7.41-18.74,11.91-38.5,13.33-58.6c0.34-4.78,0.5-9.51,0.5-14.05C579.62,284.28,579.49,280.07,579.27,275.88"/>
		<path class="st6" d="M229.84,145.72l-27.15-27.15c-21.12,20.38-37.65,45.03-48.49,72.3l35.46,14.65
			C198.58,182.92,212.29,162.52,229.84,145.72"/>
		<path class="st7" d="M236.52,139.6c15.83-13.75,33.91-24.69,53.44-32.33l-14.74-35.49c-25.96,10.25-49.74,25.33-70.08,44.43
			c-0.82,0.78-1.63,1.57-2.44,2.36l27.15,27.15C232.01,143.63,234.24,141.59,236.52,139.6"/>
		<path class="st1" d="M179.85,244.36c1.62-13.31,4.91-26.36,9.81-38.84l-35.46-14.65c-7.41,18.74-11.91,38.5-13.33,58.6
			c-0.34,4.78-0.5,9.51-0.5,14.05c0,4,0.14,8.21,0.4,12.36c0,0.56,0.06,1.12,0.1,1.68l0.36,5.13h81.69v-38.33H179.85z"/>
		<path class="st3" d="M540.84,250.31l0.42,5.05h38.36l-0.41-5.89c-1.43-20.26-5.98-40.18-13.5-59.05l-35.42,14.72
			C536.01,219.6,539.56,234.81,540.84,250.31"/>
		<path class="st4" d="M360.05,94.1c23.82-0.03,47.44,4.38,69.65,13l14.68-35.52c-26.87-10.5-55.48-15.86-84.33-15.81H360V94.1
			H360.05z"/>
		<path class="st0" d="M360,94.1V55.78c-29.02-0.05-57.78,5.38-84.78,16l14.74,35.49C312.28,98.54,336.03,94.07,360,94.1"/>
		<path class="st2" d="M530.3,205.14l35.42-14.72c-10.86-27.11-27.35-51.62-48.37-71.9l-27.15,27.15
			C507.68,162.38,521.36,182.66,530.3,205.14"/>
		<path class="st5" d="M483.57,139.6c2.28,1.97,4.49,3.99,6.63,6.07l27.15-27.15c-0.79-0.77-1.58-1.54-2.39-2.31
			c-20.47-19.23-44.43-34.37-70.57-44.63L429.7,107.1C449.4,114.75,467.62,125.74,483.57,139.6"/>
	</g>
	<g>
		<path class="st8" d="M253.17,656.57h-3.7v-1.48h5.36v7.26c-1.51,0.69-3.52,1.87-6.69,1.87c-5.03,0-9.25-3.64-9.25-9.49
			s4.22-9.43,9.25-9.43c2.14,0,4.49,0.72,5.93,1.81v1.75c-1.48-1.14-3.37-2.02-5.93-2.02c-4.37,0-7.53,3.16-7.53,7.89
			c0,4.73,3.16,7.95,7.53,7.95c2.02,0,3.71-0.42,5.03-1.24V656.57z"/>
		<path class="st8" d="M268.6,660.21c1.14,2.08,2.26,2.38,3.73,2.38c0.24,0,0.45,0,0.69-0.03v1.3c-0.45,0.09-0.9,0.12-1.33,0.12
			c-1.93,0-3.49-0.99-4.73-3.31l-2.32-4.37h-3.37v7.47h-1.66V645.7h5.6c3.89,0,5.57,2.47,5.57,5.3c0,2.56-1.36,4.76-4.4,5.21
			L268.6,660.21z M269.14,651c0-1.87-0.93-3.83-3.92-3.83h-3.95v7.65h3.95C268.2,654.82,269.14,652.9,269.14,651z"/>
		<path class="st8" d="M274.83,663.77h-1.72l7.47-18.07h1.36l7.47,18.07h-1.81l-2.17-5.24h-8.46L274.83,663.77z M281.19,648.17
			l-3.61,8.89h7.26L281.19,648.17z"/>
		<path class="st8" d="M298.23,645.7c3.89,0,5.57,2.62,5.57,5.45c0,2.86-1.69,5.45-5.57,5.45h-3.95v7.17h-1.66V645.7H298.23z
			 M302.15,651.15c0-1.87-0.93-3.98-3.92-3.98h-3.95v7.95h3.95C301.22,655.12,302.15,653.05,302.15,651.15z"/>
		<path class="st8" d="M308.68,645.7v7.83h10.78v-7.83h1.66v18.07h-1.66V655h-10.78v8.77h-1.66V645.7H308.68z"/>
		<path class="st8" d="M327.6,645.7v18.07h-1.66V645.7H327.6z"/>
		<path class="st8" d="M340.79,645.31c2.14,0,4.49,0.72,5.93,1.81v1.75c-1.48-1.14-3.37-2.02-5.93-2.02c-4.37,0-7.53,3.16-7.53,7.89
			c0,4.73,3.16,7.89,7.53,7.89c2.56,0,4.46-0.87,5.93-2.02v1.75c-1.45,1.08-3.8,1.81-5.93,1.81c-5.03,0-9.25-3.58-9.25-9.43
			S335.76,645.31,340.79,645.31z"/>
		<path class="st8" d="M361.94,645.7c6.78,0,9.67,4.07,9.67,9.04s-2.89,9.04-9.67,9.04h-5.3V645.7H361.94z M369.89,654.73
			c0-3.95-1.96-7.47-7.92-7.47h-3.68v14.94h3.68C367.93,662.2,369.89,658.68,369.89,654.73z"/>
		<path class="st8" d="M385.79,645.7v1.48h-8.58v6.36h7.08V655h-7.08v7.29h8.58v1.48h-10.24V645.7H385.79z"/>
		<path class="st8" d="M389.44,660.49c1.14,1.11,3.04,2.2,5.3,2.2c2.23,0,4.04-1.36,4.04-3.49c0-2.02-0.99-3.25-4.43-4.19
			c-3.07-0.84-4.76-2.71-4.76-5.18c0-2.47,2.14-4.52,5.45-4.52c1.75,0,3.53,0.75,4.52,1.51l-0.36,1.42
			c-1.2-0.84-2.86-1.45-4.16-1.45c-2.35,0-3.76,1.27-3.76,3.04c0,1.48,0.84,2.77,3.76,3.55c3.53,0.93,5.42,2.68,5.42,5.6
			c0,3.43-2.92,5.18-5.72,5.18c-2.62,0-4.64-1.05-5.63-2.02L389.44,660.49z"/>
		<path class="st8" d="M406.03,645.7v18.07h-1.66V645.7H406.03z"/>
		<path class="st8" d="M424.25,656.57h-3.71v-1.48h5.36v7.26c-1.51,0.69-3.52,1.87-6.69,1.87c-5.03,0-9.25-3.64-9.25-9.49
			s4.22-9.43,9.25-9.43c2.14,0,4.49,0.72,5.93,1.81v1.75c-1.48-1.14-3.38-2.02-5.93-2.02c-4.37,0-7.53,3.16-7.53,7.89
			c0,4.73,3.16,7.95,7.53,7.95c2.02,0,3.7-0.42,5.03-1.24V656.57z"/>
		<path class="st8" d="M431.84,645.7l10.93,14.73V645.7h1.57v18.07h-1.14l-10.93-14.73v14.73h-1.57V645.7H431.84z"/>
		<path class="st8" d="M455.13,663.77h-1.72l7.47-18.07h1.36l7.47,18.07h-1.81l-2.17-5.24h-8.46L455.13,663.77z M461.48,648.17
			l-3.61,8.89h7.26L461.48,648.17z"/>
		<path class="st8" d="M474.1,645.7l10.93,14.73V645.7h1.57v18.07h-1.14l-10.93-14.73v14.73h-1.57V645.7H474.1z"/>
		<path class="st8" d="M496.72,645.7c6.78,0,9.67,4.07,9.67,9.04s-2.89,9.04-9.67,9.04h-5.3V645.7H496.72z M504.67,654.73
			c0-3.95-1.96-7.47-7.92-7.47h-3.68v14.94h3.68C502.72,662.2,504.67,658.68,504.67,654.73z"/>
		<path class="st8" d="M517.8,645.7v18.07h-1.66V645.7H517.8z"/>
		<path class="st8" d="M524.28,645.7v16.6h8.58v1.48h-10.24V645.7H524.28z"/>
		<path class="st8" d="M537.65,645.7v16.6h8.58v1.48H536V645.7H537.65z"/>
		<path class="st8" d="M548.47,645.7h1.66v9.73c0,5,2.32,7.26,5.81,7.26s5.84-2.26,5.84-7.26v-9.73h1.66v9.7
			c0,6.08-3.01,8.83-7.5,8.83s-7.47-2.74-7.47-8.83V645.7z"/>
		<path class="st8" d="M567.68,660.49c1.14,1.11,3.04,2.2,5.3,2.2c2.23,0,4.04-1.36,4.04-3.49c0-2.02-0.99-3.25-4.43-4.19
			c-3.07-0.84-4.76-2.71-4.76-5.18c0-2.47,2.14-4.52,5.45-4.52c1.75,0,3.53,0.75,4.52,1.51l-0.36,1.42
			c-1.2-0.84-2.86-1.45-4.16-1.45c-2.35,0-3.76,1.27-3.76,3.04c0,1.48,0.84,2.77,3.76,3.55c3.53,0.93,5.42,2.68,5.42,5.6
			c0,3.43-2.92,5.18-5.72,5.18c-2.62,0-4.64-1.05-5.63-2.02L567.68,660.49z"/>
		<path class="st8" d="M580.33,647.17v-1.48h14.55v1.48h-6.45v16.6h-1.66v-16.6H580.33z"/>
		<path class="st8" d="M606.99,660.21c1.14,2.08,2.26,2.38,3.73,2.38c0.24,0,0.45,0,0.69-0.03v1.3c-0.45,0.09-0.9,0.12-1.33,0.12
			c-1.93,0-3.49-0.99-4.73-3.31l-2.32-4.37h-3.38v7.47h-1.66V645.7h5.6c3.88,0,5.57,2.47,5.57,5.3c0,2.56-1.36,4.76-4.4,5.21
			L606.99,660.21z M607.53,651c0-1.87-0.93-3.83-3.92-3.83h-3.95v7.65h3.95C606.6,654.82,607.53,652.9,607.53,651z"/>
		<path class="st8" d="M613.22,663.77h-1.72l7.47-18.07h1.36l7.47,18.07H626l-2.17-5.24h-8.46L613.22,663.77z M619.58,648.17
			l-3.62,8.89h7.26L619.58,648.17z"/>
		<path class="st8" d="M626.96,647.17v-1.48h14.55v1.48h-6.45v16.6h-1.66v-16.6H626.96z"/>
		<path class="st8" d="M646.3,645.7v18.07h-1.66V645.7H646.3z"/>
		<path class="st8" d="M659.49,645.24c5.3,0,9.25,3.98,9.25,9.49c0,5.54-3.95,9.49-9.25,9.49c-5.33,0-9.25-3.95-9.25-9.49
			C650.24,649.22,654.16,645.24,659.49,645.24z M659.49,646.78c-4.37,0-7.53,3.19-7.53,7.95s3.16,7.95,7.53,7.95
			c4.31,0,7.53-3.19,7.53-7.95S663.8,646.78,659.49,646.78z"/>
		<path class="st8" d="M673.83,645.7l10.93,14.73V645.7h1.57v18.07h-1.14l-10.93-14.73v14.73h-1.57V645.7H673.83z"/>
	</g>
	<g>
		<path class="st9" d="M77.32,580.74c-1.45-11.73-7.39-17.59-14.38-17.59c-4.42,0-6.91,1.61-9,5.06
			c-2.81,4.34-4.42,11.41-4.42,21.21c0,7.87,1.29,14.78,3.37,18.72c2.01,4.18,4.42,6.26,8.67,6.26c2.89,0,3.69-1.29,4.02-4.1
			c0.32-2.49,0.4-9.08,0.4-13.01c-0.08-4.82-0.48-5.62-2.89-5.78l-3.69-0.32l-0.32-1.04c2.57,0,10.36,0.24,13.41,0.24
			c4.1,0,9.48-0.16,11.57-0.24l0.24,0.88c-3.45,0.48-3.86,0.96-4.18,3.05c-0.32,3.29-0.4,5.46-0.4,8.27c0,4.82,0.16,6.67,0.32,9.4
			c-2.09,0.48-4.58,1.29-7.15,2.09c-3.94,1.12-8.51,1.93-11.97,1.93c-11.33,0-18.31-2.57-22.65-8.43c-3.37-4.34-4.9-10.36-4.9-18.07
			c0-9.56,3.69-17.91,10.6-22.81c3.94-2.89,9.32-4.58,17.99-4.58c7.15,0,12.77,2.41,15.18,4.66l1.53-4.9l0.8,0.56
			c-0.48,2.57-1.45,12.37-1.04,18.55H77.32z"/>
		<path class="st9" d="M137.07,614.72c-2.41-0.08-7.47-0.32-13.09-0.32c-5.38,0-8.35,0.24-12.61,0.32l0.24-1.04
			c3.86-0.56,4.34-0.72,4.02-2.49c-0.24-2.09-2.41-10.36-3.94-16.87c-1.93-0.08-4.26-0.08-6.35-0.08c-2.17,0-4.5,0-6.59,0.08
			c-2.73,9.48-3.69,13.25-3.86,14.78c-0.4,3.21,0.8,4.02,6.91,4.58l-0.4,1.04c-1.85,0-4.34-0.32-7.71-0.32
			c-2.25,0-6.1,0.32-8.84,0.32v-1.04c4.18-0.48,5.54-1.04,7.07-5.06c3.13-8.03,11.08-33.66,13.17-40.64
			c0.64-1.85,0.64-2.73,0.72-4.18c2.17,0.08,10.04-0.56,11.81-1.61c2.25,9.08,11.17,42.97,14.14,49.16
			c0.56,1.29,1.45,1.85,2.49,1.93l2.81,0.4L137.07,614.72z M99.4,592.55c1.85,0,4.1,0.08,6.1,0.08s4.18-0.08,5.7-0.08
			c-1.53-6.83-3.77-16.23-5.22-22.41C104.7,574.4,102.86,580.26,99.4,592.55z"/>
		<path class="st9" d="M138.28,613.68c4.42-0.32,5.7-0.48,5.86-2.33c0.24-2.17,0.48-7.95,0.48-16.23v-15.34
			c0-8.35,0-10.76-0.24-13.57c-0.16-1.53-1.45-1.93-6.19-2.25l-0.16-1.04c2.65,0,8.35,0.32,12.61,0.32c3.29,0,12.05-0.32,15.5-0.32
			c8.03,0,10.12,0.64,12.69,2.49c2.57,1.85,3.53,5.06,3.53,8.51c0,5.38-2.81,8.43-6.27,10.04c-2.41,1.12-5.46,1.85-9.4,2.41v0.64
			c6.18,0.4,10.44,1.29,13.57,3.21c3.13,1.85,4.82,4.9,4.82,9.64c0,4.74-1.85,8.35-4.74,10.6c-3.94,3.05-9.88,4.1-18.23,4.1
			c-3.94,0-7.71-0.16-11.57-0.16c-4.1,0-9.16,0.32-12.37,0.32L138.28,613.68z M158.68,586.29c0.64,0.08,1.77,0.08,2.81,0.08
			c4.26,0,6.51-2.49,6.51-11.17c0-3.61-0.4-5.94-1.37-7.95s-2.81-3.05-5.3-3.05c-1.85,0-2.33,0.4-2.33,1.37
			c-0.08,2.49-0.32,5.7-0.32,10.12V586.29z M158.68,599.14c0,6.83,0,10.6,0.24,12.85c0.08,0.8,0.8,1.37,2.89,1.37
			c2.97,0,4.66-1.12,5.86-3.13c1.29-2.01,2.09-5.78,2.09-10.52c0-4.42-0.48-7.39-1.85-9.4c-1.21-1.85-3.29-2.65-6.43-2.65
			c-0.96,0-2.25,0.08-2.81,0.24V599.14z"/>
		<path class="st9" d="M189.76,613.68c4.42-0.32,5.7-0.48,5.86-2.33c0.24-2.17,0.48-7.95,0.48-16.23v-15.34
			c0-8.35,0-10.76-0.24-13.57c-0.16-1.53-1.45-1.93-6.19-2.25l-0.16-1.04c2.65,0,8.35,0.32,12.61,0.32c3.29,0,12.05-0.32,15.5-0.32
			c8.03,0,10.12,0.64,12.69,2.49c2.57,1.85,3.53,5.06,3.53,8.51c0,5.38-2.81,8.43-6.27,10.04c-2.41,1.12-5.46,1.85-9.4,2.41v0.64
			c6.18,0.4,10.44,1.29,13.57,3.21c3.13,1.85,4.82,4.9,4.82,9.64c0,4.74-1.85,8.35-4.74,10.6c-3.94,3.05-9.88,4.1-18.23,4.1
			c-3.94,0-7.71-0.16-11.57-0.16c-4.1,0-9.16,0.32-12.37,0.32L189.76,613.68z M210.16,586.29c0.64,0.08,1.77,0.08,2.81,0.08
			c4.26,0,6.51-2.49,6.51-11.17c0-3.61-0.4-5.94-1.37-7.95s-2.81-3.05-5.3-3.05c-1.85,0-2.33,0.4-2.33,1.37
			c-0.08,2.49-0.32,5.7-0.32,10.12V586.29z M210.16,599.14c0,6.83,0,10.6,0.24,12.85c0.08,0.8,0.8,1.37,2.89,1.37
			c2.97,0,4.66-1.12,5.86-3.13c1.29-2.01,2.09-5.78,2.09-10.52c0-4.42-0.48-7.39-1.85-9.4c-1.21-1.85-3.29-2.65-6.43-2.65
			c-0.96,0-2.25,0.08-2.81,0.24V599.14z"/>
		<path class="st9" d="M276.19,614.72c-3.77,0-10.2-0.32-14.54-0.32c-6.91,0-10.36,0.32-14.06,0.32l-0.24-1.04
			c1.85-0.16,3.21-0.4,4.66-0.56c1.85-0.24,2.81-0.8,2.97-2.89c0.24-3.05,0.32-12.13,0.4-17.51c0-0.88-0.08-1.77-0.64-3.13
			c-1.85-4.5-7.39-15.98-11.17-21.77c-2.01-3.05-2.57-3.78-6.43-3.86l-0.08-1.04c2.17,0,8.75,0.32,12.93,0.32
			c6.43,0,10.6-0.32,13.17-0.32l0.24,1.04l-3.37,0.4c-1.37,0.16-1.29,0.96-0.72,2.41c1.12,2.89,6.27,14.06,9.4,20.96
			c4.18-9.32,7.07-16.06,8.35-20.08c0.8-2.57,0.08-3.05-1.12-3.21c-1.29-0.16-3.13-0.32-4.58-0.48l0.08-1.04
			c1.61,0,4.66,0.32,8.11,0.32c3.61,0,5.06-0.32,7.79-0.32l0.32,1.04c-4.42,0.24-5.62,0.64-7.55,3.78
			c-2.81,4.98-6.91,14.06-9.96,20.56c-0.72,1.53-0.72,2.49-0.72,3.94c-0.16,5.46,0,15.34,0.4,19.12c0.16,1.04,0.48,1.61,1.53,1.69
			c1.12,0.16,2.57,0.32,4.58,0.64L276.19,614.72z"/>
		<path class="st9" d="M357.31,562.91c2.65,0,6.02,0.32,8.51,0.32c3.86-0.08,5.3-0.32,7.39-0.32v1.04c-4.5,0.56-5.14,1.21-6.75,5.22
			c-4.98,13.98-9.88,31.17-14.22,45.86c-3.61,0-5.78,0-7.31,0.32c-2.33-9.08-7.47-25.06-11.25-38.8
			c-4.58,18.8-6.83,28.11-9.16,38.47c-2.17,0-6.02,0.16-7.47,0.32c-4.42-16.87-9.96-36.31-13.25-45.38
			c-1.85-5.22-2.41-5.78-6.59-6.02v-1.04c2.33,0,8.35,0.32,12.05,0.32c4.74,0,8.59-0.32,13.01-0.32l0.48,1.04l-3.45,0.48
			c-1.04,0.16-1.61,0.48-1.29,2.01c1.12,5.62,6.75,25.14,8.59,32.53c2.81-11.49,7.71-34.06,8.03-36.06
			c2.57,0.32,7.55,0.24,9.56,0.08c2.01,8.27,6.26,21.53,10.76,36.87c2.89-9.08,7.55-25.06,8.92-32.21c0.48-2.57-0.08-3.05-1.69-3.21
			l-4.5-0.48L357.31,562.91z"/>
		<path class="st9" d="M379.08,582.27c0-10.2-0.16-13.98-0.32-15.82c-0.24-2.01-1.45-2.25-5.54-2.49l0.16-1.04
			c2.65,0,7.47,0.32,13.17,0.32c4.74,0,9.72-0.32,12.21-0.32l0.24,1.04c-4.18,0.32-5.3,0.56-5.46,2.49
			c-0.16,2.01-0.4,6.83-0.4,15.82v13.01c0,9.24,0.32,13.81,0.48,15.82c0.16,2.01,1.29,2.25,5.46,2.57l-0.16,1.04
			c-2.81,0-7.71-0.32-12.77-0.32c-5.46,0-10.6,0.32-13.17,0.32l0.16-1.04c4.1-0.32,5.3-0.56,5.54-2.57c0.16-1.85,0.4-7.47,0.4-15.82
			V582.27z"/>
		<path class="st9" d="M403.01,562.91c1.04,0,5.86,0.32,10.6,0.32c4.02,0,5.94-0.08,8.84-0.32c0.72,1.37,1.85,3.21,4.02,6.75
			c2.33,3.94,7.87,12.45,18.63,28.35c0-18.15-0.4-27.87-0.64-30.12c-0.4-2.65-1.04-3.45-4.26-3.69l-2.97-0.24l0.4-1.04
			c2.57,0,5.78,0.32,8.52,0.32c2.73,0,6.1-0.32,7.79-0.32v0.96c-1.04,0.24-2.57,0.32-3.54,0.56c-1.45,0.4-2.01,1.37-2.41,3.05
			c-0.72,3.37-1.37,14.62-1.37,28.19v18.71c-1.61,0-6.11,0.48-8.03,0.88c-6.83-11.17-18.96-30.84-27.23-44.34
			c0,23.78,0.32,35.26,0.72,38.88c0.24,2.09,1.45,2.89,2.81,3.13c1.21,0.24,3.05,0.56,4.66,0.72l-0.16,1.04
			c-2.25,0-5.62-0.32-10.12-0.32c-3.77,0-5.22,0.32-6.91,0.32l0.08-1.04c0.72,0,1.69-0.24,3.13-0.4c1.77-0.4,2.65-1.45,3.05-4.58
			c0.32-2.89,1.37-14.62,1.37-39.6c-0.56-1.04-0.88-1.69-1.61-2.81c-0.8-1.2-1.53-1.69-2.57-1.85l-2.81-0.48V562.91z"/>
		<path class="st9" d="M462.13,580.42c0-8.19-0.24-12.21-0.32-13.98c-0.08-1.69-1.04-2.01-2.41-2.17l-3.61-0.32l0.08-1.04
			c1.77,0,8.19,0.32,12.61,0.32c4.26,0,9.64-0.32,13.97-0.32c9.24,0,13.33,1.2,16.31,3.05c6.43,3.94,9.32,11.17,9.32,20.96
			c0,10.6-3.45,20.8-13.33,25.14c-3.53,1.61-8.35,2.57-14.62,2.57c-4.42,0-8.84-0.24-13.25-0.24c-5.46,0-9.4,0.32-11.41,0.32
			l0.08-1.04l3.38-0.24c2.09-0.16,2.57-0.96,2.65-2.33c0.16-1.77,0.56-9,0.56-17.75V580.42z M476.1,593.84
			c0,12.69,0.08,16.06,0.32,17.99c0.16,1.04,0.56,1.53,2.65,1.53c5.3,0,8.03-1.85,9.8-4.5c2.09-3.13,4.18-9.72,4.18-21.21
			c0-10.04-1.53-16.47-4.18-19.84c-2.17-2.57-5.14-3.61-8.75-3.61c-3.29,0-3.46,0.72-3.7,2.01c-0.08,1.21-0.32,4.74-0.32,15.1
			V593.84z"/>
		<path class="st9" d="M520.28,582.67c0-8.51,0-13.57-0.24-16.22c-0.08-2.01-1.77-2.41-5.46-2.49l0.08-1.04
			c2.41,0,9.08,0.32,11.89,0.32c3.05,0,10.12-0.32,12.77-0.32l-0.16,1.04c-3.45,0-4.1,0.48-4.42,2.73c-0.24,2.33-0.4,8.03-0.4,13.98
			v5.94c1.85,0,4.02,0.08,6.67,0.08s5.46-0.08,8.59-0.08v-7.47c0-7.23-0.16-10.2-0.32-13.01c-0.08-1.77-1.77-2.09-5.06-2.17
			l0.08-1.04c2.65,0.08,9.72,0.32,12.05,0.32c4.18,0,11.24-0.24,12.85-0.32v1.04c-3.86,0.16-5.06,0.56-5.14,2.17
			c-0.08,2.89-0.4,9.08-0.4,15.34v12.05c0,8.67,0.24,16.31,0.56,18.39c0.08,1.04,1.21,1.53,5.46,1.77l-0.32,0.96
			c-2.01,0-7.31-0.24-12.85-0.24c-5.38,0-10.36,0.24-12.77,0.24l0.08-0.96c3.78-0.48,5.22-0.88,5.38-2.65
			c0.08-1.77,0.4-6.51,0.4-14.78v-7.79c-2.49-0.08-5.54-0.08-8.35-0.08c-2.81,0-5.06,0-6.91,0.08v7.39c0,6.59,0.16,13.41,0.32,15.26
			c0.16,1.85,1.61,2.41,5.46,2.57l0,1.04c-3.05,0-8.51-0.32-13.57-0.32c-4.02,0-9.24,0.32-12.61,0.32v-1.04
			c4.02-0.16,5.7-0.72,5.86-2.73c0.16-1.77,0.48-5.78,0.48-15.26V582.67z"/>
		<path class="st9" d="M622.13,614.72c-2.41-0.08-7.47-0.32-13.09-0.32c-5.38,0-8.35,0.24-12.61,0.32l0.24-1.04
			c3.86-0.56,4.34-0.72,4.02-2.49c-0.24-2.09-2.41-10.36-3.94-16.87c-1.93-0.08-4.26-0.08-6.34-0.08c-2.17,0-4.5,0-6.59,0.08
			c-2.73,9.48-3.69,13.25-3.86,14.78c-0.4,3.21,0.8,4.02,6.91,4.58l-0.4,1.04c-1.85,0-4.34-0.32-7.71-0.32
			c-2.25,0-6.1,0.32-8.83,0.32v-1.04c4.18-0.48,5.54-1.04,7.07-5.06c3.13-8.03,11.08-33.66,13.17-40.64
			c0.64-1.85,0.64-2.73,0.72-4.18c2.17,0.08,10.04-0.56,11.81-1.61c2.25,9.08,11.16,42.97,14.14,49.16
			c0.56,1.29,1.45,1.85,2.49,1.93l2.81,0.4V614.72z M584.45,592.55c1.85,0,4.1,0.08,6.11,0.08s4.18-0.08,5.7-0.08
			c-1.53-6.83-3.78-16.23-5.22-22.41C589.76,574.4,587.91,580.26,584.45,592.55z"/>
		<path class="st9" d="M623.49,562.91c5.3,0.32,8.75,0.32,11.08,0.32c4.34,0,7.79-0.16,9.24-0.32c1.53,5.22,7.63,19.68,12.29,32.29
			c3.69-10.68,9.32-28.83,10.28-32.29c1.77,0.32,4.1,0.32,8.6,0.32c4.9,0,8.67-0.32,10.92-0.32l0.24,1.04
			c-1.21,0.16-3.61,0.4-4.58,0.48c-1.04,0.16-1.45,1.04-1.45,2.17c0,1.69,0.08,5.06,0,10.28c-0.08,16.14,0.16,29.32,0.4,33.49
			c0.16,2.17,0.8,2.73,2.33,2.89l3.78,0.4v1.04c-1.69-0.08-8.76-0.32-12.85-0.32c-4.82,0-9.8,0.24-13.17,0.32l0.16-1.04
			c3.86-0.32,4.98-0.64,5.06-2.41c0.24-3.77,0.56-23.13,0.96-44.42h-0.08c-6.51,20.96-11.65,40.08-13.73,46.67l-6.03,1.37
			c-2.65-9.32-11.49-33.9-15.9-47.23h-0.16c0,19.36,0.4,30.6,0.56,38.79c0.08,5.3,1.12,6.35,3.37,6.59l4.26,0.64l-0.48,1.04
			c-1.69,0-5.78-0.32-9.4-0.32c-3.13,0-5.62,0.32-6.91,0.32v-1.04c0.96-0.16,1.61-0.24,2.81-0.48c2.09-0.32,3.29-1.37,3.54-6.99
			c0.32-5.78,0.88-20.64,0.88-39.76l-0.32-0.88c-0.24-0.48-0.8-1.12-2.01-1.21l-3.78-0.32L623.49,562.91z"/>
	</g>
</g>
</svg>
