<?xml version="1.0" encoding="utf-8"?>
<!-- Generator: Adobe Illustrator 24.1.3, SVG Export Plug-In . SVG Version: 6.00 Build 0)  -->
<svg version="1.0" id="Layer_1" xmlns="http://www.w3.org/2000/svg" xmlns:xlink="http://www.w3.org/1999/xlink" x="0px" y="0px"
	 viewBox="0 0 745.78 435.3" style="enable-background:new 0 0 745.78 435.3;" xml:space="preserve">
<style type="text/css">
	.st0{fill:#FFDE44;}
	.st1{fill:#FFCE00;}
	.st2{fill:#FFEE88;}
	.st3{fill:#FFF39F;}
	.st4{fill:#FFE35B;}
	.st5{fill:#FFE872;}
	.st6{fill:#FFD317;}
	.st7{fill:#FFD92D;}
	.st8{fill:#15173F;}
	.st9{fill:#231F20;}
</style>
<g>
	<g>
		<polygon class="st0" points="353.74,91.65 375.48,91.65 375.4,91.93 400.92,181.26 379.34,181.26 		"/>
		<polygon class="st1" points="341.07,91.65 319.5,91.65 345.1,181.26 366.67,181.26 		"/>
		<polygon class="st2" points="396.48,120.47 407.26,158.23 426.29,91.65 404.55,91.65 404.63,91.93 		"/>
		<path class="st3" d="M283.46,144.03l-0.21-2.49h-18.97l0.2,2.91c0.71,10.02,2.96,19.87,6.67,29.2l17.51-7.27
			C285.86,159.22,284.1,151.69,283.46,144.03"/>
		<path class="st4" d="M372.87,221.26c-11.78,0.02-23.47-2.16-34.45-6.43l-7.23,17.59c13.29,5.19,27.44,7.84,41.71,7.82v-18.97
			H372.87z"/>
		<path class="st0" d="M372.89,221.26v18.95c14.35,0.02,28.57-2.66,41.93-7.91l-7.29-17.55
			C396.49,219.06,384.74,221.27,372.89,221.26"/>
		<path class="st2" d="M288.68,166.37l-17.51,7.27c5.37,13.41,13.52,25.53,23.92,35.55l13.43-13.43
			C299.86,187.51,293.1,177.48,288.68,166.37"/>
		<path class="st5" d="M311.78,198.78c-1.12-0.97-2.21-1.97-3.28-3l-13.43,13.43c0.39,0.38,0.78,0.76,1.18,1.14
			c10.13,9.51,21.98,17.01,34.93,22.08l7.26-17.56C328.7,211.07,319.68,205.63,311.78,198.78"/>
		<path class="st6" d="M437.26,195.75l13.43,13.43c10.44-10.08,18.62-22.27,23.98-35.75l-17.53-7.24
			C452.71,177.35,445.93,187.44,437.26,195.75"/>
		<path class="st7" d="M433.95,198.78c-7.83,6.8-16.77,12.21-26.42,15.99l7.29,17.55c12.84-5.07,24.6-12.52,34.66-21.97
			c0.41-0.39,0.81-0.78,1.21-1.17l-13.43-13.43C436.2,196.78,435.1,197.79,433.95,198.78"/>
		<path class="st1" d="M481.32,131.39c0-0.28-0.03-0.56-0.05-0.84l-0.18-2.54h-38.11v18.95h18.99c-0.8,6.58-2.43,13.03-4.85,19.21
			l17.53,7.24c3.67-9.27,5.89-19.04,6.59-28.98c0.17-2.36,0.25-4.7,0.25-6.95C481.5,135.54,481.43,133.46,481.32,131.39"/>
		<path class="st6" d="M308.53,67.02L295.1,53.6c-10.44,10.08-18.62,22.27-23.98,35.75l17.53,7.24
			C293.07,85.42,299.85,75.33,308.53,67.02"/>
		<path class="st7" d="M311.83,64c7.83-6.8,16.77-12.21,26.42-15.99l-7.29-17.55c-12.84,5.07-24.6,12.53-34.66,21.97
			c-0.41,0.39-0.81,0.78-1.21,1.17l13.43,13.43C309.6,65.99,310.7,64.98,311.83,64"/>
		<path class="st1" d="M283.81,115.8c0.8-6.58,2.43-13.04,4.85-19.21l-17.53-7.24c-3.66,9.27-5.89,19.04-6.59,28.98
			c-0.17,2.36-0.25,4.7-0.25,6.95c0,1.98,0.07,4.06,0.2,6.11c0,0.27,0.03,0.55,0.05,0.83l0.18,2.54h40.4V115.8H283.81z"/>
		<path class="st3" d="M462.32,118.74l0.21,2.5h18.97l-0.2-2.91c-0.71-10.02-2.96-19.87-6.67-29.2l-17.51,7.28
			C459.93,103.56,461.69,111.08,462.32,118.74"/>
		<path class="st4" d="M372.92,41.5c11.78-0.01,23.46,2.17,34.44,6.43l7.26-17.56c-13.29-5.19-27.44-7.84-41.7-7.82h-0.03V41.5
			H372.92z"/>
		<path class="st0" d="M372.89,41.5V22.55c-14.35-0.02-28.57,2.66-41.93,7.91l7.29,17.55C349.29,43.69,361.04,41.49,372.89,41.5"/>
		<path class="st2" d="M457.11,96.41l17.51-7.28c-5.37-13.41-13.52-25.53-23.92-35.55L437.28,67
			C445.92,75.26,452.69,85.29,457.11,96.41"/>
		<path class="st5" d="M434,64c1.13,0.97,2.22,1.97,3.28,3l13.43-13.43c-0.39-0.38-0.78-0.76-1.18-1.14
			c-10.12-9.51-21.97-17-34.9-22.07l-7.26,17.56C417.1,51.71,426.11,57.14,434,64"/>
	</g>
	<g>
		<g>
			<path class="st8" d="M216.84,402.21h-4.14v-1.65h5.99v8.11c-1.68,0.77-3.94,2.09-7.47,2.09c-5.62,0-10.33-4.07-10.33-10.6
				s4.71-10.53,10.33-10.53c2.39,0,5.01,0.81,6.63,2.02v1.95c-1.65-1.28-3.77-2.25-6.63-2.25c-4.88,0-8.41,3.53-8.41,8.82
				c0,5.28,3.53,8.88,8.41,8.88c2.25,0,4.14-0.47,5.62-1.38V402.21z"/>
			<path class="st8" d="M234.07,406.28c1.28,2.32,2.52,2.66,4.17,2.66c0.27,0,0.51,0,0.77-0.03v1.45c-0.5,0.1-1.01,0.13-1.48,0.13
				c-2.15,0-3.9-1.11-5.28-3.7l-2.59-4.88h-3.77v8.35h-1.85v-20.19h6.26c4.34,0,6.23,2.76,6.23,5.92c0,2.86-1.51,5.32-4.91,5.82
				L234.07,406.28z M234.67,395.98c0-2.09-1.04-4.27-4.37-4.27h-4.41v8.55h4.41C233.63,400.25,234.67,398.1,234.67,395.98z"/>
			<path class="st8" d="M241.03,410.25h-1.92l8.35-20.19h1.51l8.35,20.19h-2.02l-2.42-5.86h-9.46L241.03,410.25z M248.14,392.82
				l-4.04,9.93h8.11L248.14,392.82z"/>
			<path class="st8" d="M267.18,390.06c4.34,0,6.23,2.93,6.23,6.09c0,3.2-1.88,6.09-6.23,6.09h-4.41v8.01h-1.85v-20.19H267.18z
				 M271.56,396.15c0-2.09-1.04-4.44-4.37-4.44h-4.41v8.88h4.41C270.51,400.59,271.56,398.27,271.56,396.15z"/>
			<path class="st8" d="M278.86,390.06v8.75h12.05v-8.75h1.85v20.19h-1.85v-9.79h-12.05v9.79h-1.85v-20.19H278.86z"/>
			<path class="st8" d="M299.99,390.06v20.19h-1.85v-20.19H299.99z"/>
			<path class="st8" d="M314.73,389.62c2.39,0,5.01,0.81,6.63,2.02v1.95c-1.65-1.28-3.77-2.25-6.63-2.25
				c-4.88,0-8.41,3.53-8.41,8.82c0,5.28,3.53,8.82,8.41,8.82c2.86,0,4.98-0.98,6.63-2.26v1.95c-1.62,1.21-4.24,2.02-6.63,2.02
				c-5.62,0-10.33-4-10.33-10.53S309.11,389.62,314.73,389.62z"/>
			<path class="st8" d="M338.35,390.06c7.57,0,10.8,4.54,10.8,10.1s-3.23,10.1-10.8,10.1h-5.92v-20.19H338.35z M347.23,400.15
				c0-4.41-2.19-8.35-8.85-8.35h-4.11v16.69h4.11C345.04,408.5,347.23,404.56,347.23,400.15z"/>
			<path class="st8" d="M365,390.06v1.65h-9.59v7.1h7.91v1.65h-7.91v8.14H365v1.65h-11.44v-20.19H365z"/>
			<path class="st8" d="M369.07,406.58c1.28,1.24,3.4,2.46,5.92,2.46c2.49,0,4.51-1.51,4.51-3.9c0-2.26-1.11-3.63-4.95-4.68
				c-3.43-0.94-5.32-3.03-5.32-5.79c0-2.76,2.39-5.05,6.09-5.05c1.95,0,3.94,0.84,5.05,1.68l-0.41,1.58
				c-1.34-0.94-3.2-1.62-4.64-1.62c-2.62,0-4.2,1.41-4.2,3.4c0,1.65,0.94,3.1,4.2,3.97c3.94,1.04,6.06,2.99,6.06,6.26
				c0,3.84-3.26,5.79-6.39,5.79c-2.93,0-5.18-1.18-6.29-2.26L369.07,406.58z"/>
			<path class="st8" d="M387.61,390.06v20.19h-1.85v-20.19H387.61z"/>
			<path class="st8" d="M407.97,402.21h-4.14v-1.65h5.99v8.11c-1.68,0.77-3.94,2.09-7.47,2.09c-5.62,0-10.33-4.07-10.33-10.6
				s4.71-10.53,10.33-10.53c2.39,0,5.01,0.81,6.63,2.02v1.95c-1.65-1.28-3.77-2.25-6.63-2.25c-4.88,0-8.41,3.53-8.41,8.82
				c0,5.28,3.53,8.88,8.41,8.88c2.25,0,4.14-0.47,5.62-1.38V402.21z"/>
			<path class="st8" d="M416.45,390.06l12.21,16.45v-16.45h1.75v20.19h-1.28l-12.21-16.46v16.46h-1.75v-20.19H416.45z"/>
			<path class="st8" d="M442.46,410.25h-1.92l8.35-20.19h1.51l8.35,20.19h-2.02l-2.42-5.86h-9.46L442.46,410.25z M449.56,392.82
				l-4.04,9.93h8.11L449.56,392.82z"/>
			<path class="st8" d="M463.66,390.06l12.21,16.45v-16.45h1.75v20.19h-1.28l-12.21-16.46v16.46h-1.75v-20.19H463.66z"/>
			<path class="st8" d="M488.93,390.06c7.57,0,10.8,4.54,10.8,10.1s-3.23,10.1-10.8,10.1h-5.92v-20.19H488.93z M497.81,400.15
				c0-4.41-2.19-8.35-8.85-8.35h-4.11v16.69h4.11C495.62,408.5,497.81,404.56,497.81,400.15z"/>
			<path class="st8" d="M512.48,390.06v20.19h-1.85v-20.19H512.48z"/>
			<path class="st8" d="M519.72,390.06v18.54h9.59v1.65h-11.44v-20.19H519.72z"/>
			<path class="st8" d="M534.66,390.06v18.54h9.59v1.65h-11.44v-20.19H534.66z"/>
			<path class="st8" d="M546.74,390.06h1.85v10.87c0,5.59,2.59,8.11,6.5,8.11s6.53-2.52,6.53-8.11v-10.87h1.85v10.83
				c0,6.8-3.36,9.86-8.38,9.86c-5.01,0-8.35-3.06-8.35-9.86V390.06z"/>
			<path class="st8" d="M568.21,406.58c1.28,1.24,3.4,2.46,5.92,2.46c2.49,0,4.51-1.51,4.51-3.9c0-2.26-1.11-3.63-4.95-4.68
				c-3.43-0.94-5.32-3.03-5.32-5.79c0-2.76,2.39-5.05,6.09-5.05c1.95,0,3.94,0.84,5.05,1.68l-0.41,1.58
				c-1.34-0.94-3.2-1.62-4.64-1.62c-2.62,0-4.2,1.41-4.2,3.4c0,1.65,0.94,3.1,4.2,3.97c3.94,1.04,6.06,2.99,6.06,6.26
				c0,3.84-3.26,5.79-6.39,5.79c-2.93,0-5.18-1.18-6.29-2.26L568.21,406.58z"/>
			<path class="st8" d="M582.34,391.71v-1.65h16.25v1.65h-7.2v18.54h-1.85v-18.54H582.34z"/>
			<path class="st8" d="M612.12,406.28c1.28,2.32,2.52,2.66,4.17,2.66c0.27,0,0.51,0,0.77-0.03v1.45c-0.5,0.1-1.01,0.13-1.48,0.13
				c-2.15,0-3.9-1.11-5.28-3.7l-2.59-4.88h-3.77v8.35h-1.85v-20.19h6.26c4.34,0,6.23,2.76,6.23,5.92c0,2.86-1.51,5.32-4.91,5.82
				L612.12,406.28z M612.73,395.98c0-2.09-1.04-4.27-4.37-4.27h-4.41v8.55h4.41C611.68,400.25,612.73,398.1,612.73,395.98z"/>
			<path class="st8" d="M619.09,410.25h-1.92l8.34-20.19h1.51l8.35,20.19h-2.02l-2.42-5.86h-9.45L619.09,410.25z M626.19,392.82
				l-4.04,9.93h8.11L626.19,392.82z"/>
			<path class="st8" d="M634.43,391.71v-1.65h16.25v1.65h-7.2v18.54h-1.85v-18.54H634.43z"/>
			<path class="st8" d="M656.03,390.06v20.19h-1.85v-20.19H656.03z"/>
			<path class="st8" d="M670.77,389.55c5.92,0,10.33,4.44,10.33,10.6c0,6.19-4.41,10.6-10.33,10.6c-5.96,0-10.33-4.41-10.33-10.6
				C660.44,394,664.81,389.55,670.77,389.55z M670.77,391.27c-4.88,0-8.41,3.57-8.41,8.88s3.53,8.88,8.41,8.88
				c4.81,0,8.41-3.57,8.41-8.88S675.58,391.27,670.77,391.27z"/>
			<path class="st8" d="M686.79,390.06L699,406.51v-16.45h1.75v20.19h-1.28l-12.21-16.46v16.46h-1.75v-20.19H686.79z"/>
		</g>
		<g>
			<path class="st9" d="M83.56,329.68c-1.48-12-7.56-18-14.72-18c-4.52,0-7.07,1.64-9.21,5.18c-2.88,4.44-4.52,11.67-4.52,21.7
				c0,8.06,1.32,15.13,3.45,19.16c2.06,4.27,4.52,6.41,8.88,6.41c2.96,0,3.78-1.32,4.11-4.19c0.33-2.55,0.41-9.29,0.41-13.32
				c-0.08-4.93-0.49-5.76-2.96-5.92l-3.78-0.33l-0.33-1.07c2.63,0,10.61,0.25,13.73,0.25c4.19,0,9.7-0.16,11.84-0.25l0.25,0.9
				c-3.53,0.49-3.95,0.99-4.28,3.12c-0.33,3.37-0.41,5.59-0.41,8.47c0,4.93,0.16,6.82,0.33,9.62c-2.14,0.49-4.69,1.32-7.32,2.14
				c-4.03,1.15-8.71,1.97-12.25,1.97c-11.59,0-18.74-2.63-23.18-8.63c-3.45-4.44-5.01-10.61-5.01-18.5
				c0-9.78,3.78-18.33,10.85-23.35c4.03-2.96,9.54-4.69,18.42-4.69c7.32,0,13.07,2.47,15.54,4.77l1.56-5.01l0.82,0.57
				c-0.49,2.63-1.48,12.66-1.07,18.99H83.56z"/>
			<path class="st9" d="M144.72,364.45c-2.47-0.08-7.65-0.33-13.4-0.33c-5.51,0-8.55,0.25-12.91,0.33l0.25-1.07
				c3.95-0.58,4.44-0.74,4.11-2.55c-0.25-2.14-2.47-10.61-4.03-17.26c-1.97-0.08-4.36-0.08-6.49-0.08c-2.22,0-4.6,0-6.74,0.08
				c-2.8,9.7-3.78,13.57-3.95,15.13c-0.41,3.29,0.82,4.11,7.07,4.69l-0.41,1.07c-1.89,0-4.44-0.33-7.89-0.33
				c-2.3,0-6.25,0.33-9.04,0.33v-1.07c4.28-0.49,5.67-1.07,7.23-5.18c3.21-8.22,11.35-34.45,13.48-41.6
				c0.66-1.89,0.66-2.79,0.74-4.27c2.22,0.08,10.28-0.58,12.08-1.65c2.3,9.29,11.43,43.98,14.47,50.31
				c0.58,1.32,1.48,1.89,2.55,1.97l2.88,0.41L144.72,364.45z M106.16,341.76c1.89,0,4.19,0.08,6.25,0.08c2.06,0,4.28-0.08,5.84-0.08
				c-1.56-6.99-3.86-16.61-5.34-22.94C111.59,323.18,109.7,329.18,106.16,341.76z"/>
			<path class="st9" d="M145.95,363.38c4.52-0.33,5.84-0.49,6-2.38c0.25-2.22,0.49-8.14,0.49-16.61v-15.7c0-8.55,0-11.02-0.25-13.89
				c-0.16-1.56-1.48-1.97-6.33-2.3l-0.16-1.07c2.71,0,8.55,0.33,12.91,0.33c3.37,0,12.33-0.33,15.87-0.33
				c8.22,0,10.36,0.66,12.99,2.55c2.63,1.89,3.62,5.18,3.62,8.71c0,5.51-2.88,8.63-6.41,10.28c-2.47,1.15-5.59,1.89-9.62,2.47v0.66
				c6.33,0.41,10.69,1.32,13.89,3.29c3.21,1.89,4.93,5.01,4.93,9.87c0,4.85-1.89,8.55-4.85,10.85c-4.03,3.12-10.11,4.19-18.66,4.19
				c-4.03,0-7.89-0.16-11.84-0.16c-4.19,0-9.37,0.33-12.66,0.33L145.95,363.38z M166.83,335.35c0.66,0.08,1.81,0.08,2.88,0.08
				c4.36,0,6.66-2.55,6.66-11.43c0-3.7-0.41-6.08-1.4-8.14c-0.99-2.06-2.88-3.12-5.43-3.12c-1.89,0-2.38,0.41-2.38,1.4
				c-0.08,2.55-0.33,5.84-0.33,10.36V335.35z M166.83,348.5c0,6.99,0,10.85,0.25,13.15c0.08,0.82,0.82,1.4,2.96,1.4
				c3.04,0,4.77-1.15,6-3.21c1.32-2.06,2.14-5.92,2.14-10.77c0-4.52-0.49-7.56-1.89-9.62c-1.23-1.89-3.37-2.71-6.58-2.71
				c-0.99,0-2.3,0.08-2.88,0.25V348.5z"/>
			<path class="st9" d="M198.65,363.38c4.52-0.33,5.84-0.49,6-2.38c0.25-2.22,0.49-8.14,0.49-16.61v-15.7c0-8.55,0-11.02-0.25-13.89
				c-0.16-1.56-1.48-1.97-6.33-2.3l-0.16-1.07c2.71,0,8.55,0.33,12.91,0.33c3.37,0,12.33-0.33,15.87-0.33
				c8.22,0,10.36,0.66,12.99,2.55c2.63,1.89,3.62,5.18,3.62,8.71c0,5.51-2.88,8.63-6.41,10.28c-2.47,1.15-5.59,1.89-9.62,2.47v0.66
				c6.33,0.41,10.69,1.32,13.89,3.29c3.21,1.89,4.93,5.01,4.93,9.87c0,4.85-1.89,8.55-4.85,10.85c-4.03,3.12-10.11,4.19-18.66,4.19
				c-4.03,0-7.89-0.16-11.84-0.16c-4.19,0-9.37,0.33-12.66,0.33L198.65,363.38z M219.53,335.35c0.66,0.08,1.81,0.08,2.88,0.08
				c4.36,0,6.66-2.55,6.66-11.43c0-3.7-0.41-6.08-1.4-8.14c-0.99-2.06-2.88-3.12-5.43-3.12c-1.89,0-2.38,0.41-2.38,1.4
				c-0.08,2.55-0.33,5.84-0.33,10.36V335.35z M219.53,348.5c0,6.99,0,10.85,0.25,13.15c0.08,0.82,0.82,1.4,2.96,1.4
				c3.04,0,4.77-1.15,6-3.21c1.32-2.06,2.14-5.92,2.14-10.77c0-4.52-0.49-7.56-1.89-9.62c-1.23-1.89-3.37-2.71-6.58-2.71
				c-0.99,0-2.3,0.08-2.88,0.25V348.5z"/>
			<path class="st9" d="M287.11,364.45c-3.86,0-10.44-0.33-14.88-0.33c-7.07,0-10.61,0.33-14.39,0.33l-0.25-1.07
				c1.89-0.16,3.29-0.41,4.77-0.58c1.89-0.25,2.88-0.82,3.04-2.96c0.25-3.12,0.33-12.41,0.41-17.92c0-0.9-0.08-1.81-0.66-3.21
				c-1.89-4.6-7.56-16.36-11.43-22.28c-2.06-3.12-2.63-3.86-6.58-3.95l-0.08-1.07c2.22,0,8.96,0.33,13.24,0.33
				c6.58,0,10.85-0.33,13.48-0.33l0.25,1.07l-3.45,0.41c-1.4,0.16-1.32,0.99-0.74,2.47c1.15,2.96,6.41,14.39,9.62,21.46
				c4.27-9.54,7.23-16.44,8.55-20.55c0.82-2.63,0.08-3.12-1.15-3.29c-1.32-0.16-3.21-0.33-4.69-0.49l0.08-1.07
				c1.64,0,4.77,0.33,8.3,0.33c3.7,0,5.18-0.33,7.97-0.33l0.33,1.07c-4.52,0.25-5.75,0.66-7.73,3.86
				c-2.88,5.1-7.07,14.39-10.19,21.05c-0.74,1.56-0.74,2.55-0.74,4.03c-0.16,5.59,0,15.7,0.41,19.57c0.16,1.07,0.49,1.64,1.56,1.73
				c1.15,0.16,2.63,0.33,4.69,0.66L287.11,364.45z"/>
			<path class="st9" d="M370.14,311.43c2.71,0,6.17,0.33,8.71,0.33c3.95-0.08,5.43-0.33,7.56-0.33v1.07
				c-4.6,0.58-5.26,1.23-6.9,5.34c-5.1,14.31-10.11,31.9-14.55,46.94c-3.7,0-5.92,0-7.48,0.33c-2.38-9.29-7.65-25.65-11.51-39.71
				c-4.69,19.24-6.99,28.77-9.37,39.38c-2.22,0-6.17,0.16-7.65,0.33c-4.52-17.26-10.19-37.16-13.56-46.45
				c-1.89-5.34-2.47-5.92-6.74-6.17v-1.07c2.38,0,8.55,0.33,12.33,0.33c4.85,0,8.8-0.33,13.32-0.33l0.49,1.07l-3.54,0.49
				c-1.07,0.16-1.64,0.49-1.32,2.06c1.15,5.75,6.91,25.73,8.8,33.3c2.88-11.76,7.89-34.86,8.22-36.91c2.63,0.33,7.73,0.25,9.78,0.08
				c2.06,8.47,6.41,22.03,11.02,37.74c2.96-9.29,7.73-25.65,9.13-32.97c0.49-2.63-0.08-3.12-1.73-3.29l-4.6-0.49L370.14,311.43z"/>
			<path class="st9" d="M392.42,331.24c0-10.44-0.16-14.3-0.33-16.2c-0.25-2.06-1.48-2.3-5.67-2.55l0.16-1.07
				c2.71,0,7.65,0.33,13.48,0.33c4.85,0,9.95-0.33,12.5-0.33l0.25,1.07c-4.27,0.33-5.43,0.58-5.59,2.55
				c-0.17,2.06-0.41,6.99-0.41,16.2v13.32c0,9.45,0.33,14.14,0.49,16.2c0.16,2.06,1.32,2.3,5.59,2.63l-0.16,1.07
				c-2.88,0-7.89-0.33-13.07-0.33c-5.59,0-10.85,0.33-13.48,0.33l0.16-1.07c4.19-0.33,5.43-0.58,5.67-2.63
				c0.16-1.89,0.41-7.65,0.41-16.2V331.24z"/>
			<path class="st9" d="M416.92,311.43c1.07,0,6,0.33,10.85,0.33c4.11,0,6.08-0.08,9.04-0.33c0.74,1.4,1.89,3.29,4.11,6.91
				c2.38,4.03,8.06,12.74,19.07,29.02c0-18.58-0.41-28.53-0.66-30.83c-0.41-2.71-1.07-3.53-4.36-3.78l-3.04-0.25l0.41-1.07
				c2.63,0,5.92,0.33,8.72,0.33c2.79,0,6.25-0.33,7.97-0.33v0.99c-1.07,0.25-2.63,0.33-3.62,0.58c-1.48,0.41-2.06,1.4-2.46,3.12
				c-0.74,3.45-1.4,14.96-1.4,28.86v19.16c-1.65,0-6.25,0.49-8.22,0.9c-6.99-11.43-19.4-31.57-27.87-45.38
				c0,24.33,0.33,36.09,0.74,39.79c0.25,2.14,1.48,2.96,2.88,3.21c1.23,0.25,3.12,0.58,4.77,0.74l-0.16,1.07
				c-2.3,0-5.76-0.33-10.36-0.33c-3.86,0-5.34,0.33-7.07,0.33l0.08-1.07c0.74,0,1.73-0.25,3.21-0.41c1.81-0.41,2.71-1.48,3.12-4.69
				c0.33-2.96,1.4-14.96,1.4-40.53c-0.58-1.07-0.91-1.73-1.65-2.88c-0.82-1.23-1.56-1.73-2.63-1.89l-2.88-0.49V311.43z"/>
			<path class="st9" d="M477.42,329.35c0-8.39-0.25-12.5-0.33-14.3c-0.08-1.73-1.07-2.06-2.47-2.22l-3.7-0.33l0.08-1.07
				c1.81,0,8.39,0.33,12.91,0.33c4.36,0,9.87-0.33,14.3-0.33c9.46,0,13.65,1.23,16.69,3.12c6.58,4.03,9.54,11.43,9.54,21.46
				c0,10.85-3.53,21.29-13.65,25.73c-3.62,1.64-8.55,2.63-14.96,2.63c-4.52,0-9.04-0.25-13.57-0.25c-5.59,0-9.62,0.33-11.67,0.33
				l0.08-1.07l3.45-0.25c2.14-0.16,2.63-0.99,2.71-2.38c0.16-1.81,0.58-9.21,0.58-18.17V329.35z M491.72,343.08
				c0,12.99,0.08,16.44,0.33,18.42c0.16,1.07,0.58,1.56,2.71,1.56c5.43,0,8.22-1.89,10.03-4.6c2.14-3.21,4.28-9.95,4.28-21.7
				c0-10.28-1.56-16.85-4.28-20.31c-2.22-2.63-5.26-3.7-8.96-3.7c-3.37,0-3.54,0.74-3.78,2.06c-0.08,1.23-0.33,4.85-0.33,15.46
				V343.08z"/>
			<path class="st9" d="M536.94,331.65c0-8.71,0-13.89-0.25-16.61c-0.08-2.06-1.81-2.47-5.59-2.55l0.08-1.07
				c2.47,0,9.29,0.33,12.17,0.33c3.12,0,10.36-0.33,13.07-0.33l-0.16,1.07c-3.53,0-4.19,0.49-4.52,2.79
				c-0.25,2.38-0.41,8.22-0.41,14.31v6.08c1.89,0,4.11,0.08,6.82,0.08c2.71,0,5.59-0.08,8.8-0.08v-7.65c0-7.4-0.16-10.44-0.33-13.32
				c-0.08-1.81-1.81-2.14-5.18-2.22l0.08-1.07c2.71,0.08,9.95,0.33,12.33,0.33c4.27,0,11.51-0.25,13.15-0.33v1.07
				c-3.95,0.16-5.18,0.58-5.26,2.22c-0.08,2.96-0.41,9.29-0.41,15.7v12.33c0,8.88,0.25,16.69,0.58,18.83
				c0.08,1.07,1.23,1.56,5.59,1.81l-0.33,0.99c-2.06,0-7.48-0.25-13.15-0.25c-5.51,0-10.61,0.25-13.07,0.25l0.08-0.99
				c3.86-0.49,5.34-0.9,5.51-2.71c0.08-1.81,0.41-6.66,0.41-15.13v-7.97c-2.55-0.08-5.67-0.08-8.55-0.08c-2.88,0-5.18,0-7.07,0.08
				v7.56c0,6.74,0.16,13.73,0.33,15.62c0.16,1.89,1.65,2.47,5.59,2.63l0,1.07c-3.12,0-8.71-0.33-13.89-0.33
				c-4.11,0-9.45,0.33-12.91,0.33v-1.07c4.11-0.16,5.84-0.74,6-2.8c0.16-1.81,0.49-5.92,0.49-15.62V331.65z"/>
			<path class="st9" d="M641.18,364.45c-2.47-0.08-7.65-0.33-13.4-0.33c-5.51,0-8.55,0.25-12.91,0.33l0.25-1.07
				c3.95-0.58,4.44-0.74,4.11-2.55c-0.25-2.14-2.47-10.61-4.03-17.26c-1.97-0.08-4.36-0.08-6.49-0.08c-2.22,0-4.6,0-6.74,0.08
				c-2.79,9.7-3.78,13.57-3.95,15.13c-0.41,3.29,0.82,4.11,7.07,4.69l-0.41,1.07c-1.89,0-4.44-0.33-7.89-0.33
				c-2.3,0-6.25,0.33-9.04,0.33v-1.07c4.27-0.49,5.67-1.07,7.23-5.18c3.21-8.22,11.34-34.45,13.48-41.6
				c0.66-1.89,0.66-2.79,0.74-4.27c2.22,0.08,10.28-0.58,12.09-1.65c2.3,9.29,11.43,43.98,14.47,50.31
				c0.58,1.32,1.48,1.89,2.55,1.97l2.88,0.41V364.45z M602.62,341.76c1.89,0,4.19,0.08,6.25,0.08s4.27-0.08,5.84-0.08
				c-1.56-6.99-3.86-16.61-5.34-22.94C608.05,323.18,606.16,329.18,602.62,341.76z"/>
			<path class="st9" d="M642.58,311.43c5.43,0.33,8.96,0.33,11.34,0.33c4.44,0,7.97-0.16,9.45-0.33
				c1.56,5.34,7.81,20.14,12.58,33.05c3.78-10.93,9.54-29.51,10.52-33.05c1.81,0.33,4.19,0.33,8.8,0.33c5.01,0,8.88-0.33,11.18-0.33
				l0.25,1.07c-1.23,0.16-3.7,0.41-4.69,0.49c-1.07,0.16-1.48,1.07-1.48,2.22c0,1.73,0.08,5.18,0,10.52
				c-0.08,16.52,0.16,30.01,0.41,34.28c0.16,2.22,0.82,2.8,2.38,2.96l3.86,0.41v1.07c-1.73-0.08-8.96-0.33-13.15-0.33
				c-4.93,0-10.03,0.25-13.48,0.33l0.16-1.07c3.95-0.33,5.1-0.66,5.18-2.47c0.25-3.86,0.58-23.68,0.99-45.46h-0.08
				c-6.66,21.46-11.92,41.02-14.06,47.76l-6.17,1.4c-2.71-9.54-11.76-34.69-16.28-48.34h-0.17c0,19.81,0.41,31.32,0.58,39.71
				c0.08,5.43,1.15,6.49,3.45,6.74l4.36,0.66l-0.49,1.07c-1.73,0-5.92-0.33-9.62-0.33c-3.21,0-5.76,0.33-7.07,0.33v-1.07
				c0.99-0.16,1.64-0.25,2.88-0.49c2.14-0.33,3.37-1.4,3.62-7.15c0.33-5.92,0.9-21.13,0.9-40.7l-0.33-0.9
				c-0.25-0.49-0.82-1.15-2.06-1.23l-3.86-0.33L642.58,311.43z"/>
		</g>
	</g>
</g>
</svg>
