<?xml version="1.0" encoding="utf-8"?>
<!-- Generator: Adobe Illustrator 24.1.3, SVG Export Plug-In . SVG Version: 6.00 Build 0)  -->
<svg version="1.1" id="Layer_1" xmlns="http://www.w3.org/2000/svg" xmlns:xlink="http://www.w3.org/1999/xlink" x="0px" y="0px"
	 viewBox="0 0 745.8 435.3" style="enable-background:new 0 0 745.8 435.3;" xml:space="preserve">
<style type="text/css">
	.st0{fill:#FFDE44;}
	.st1{fill:#FFCE00;}
	.st2{fill:#FFEE88;}
	.st3{fill:#FFF39F;}
	.st4{fill:#FFE35B;}
	.st5{fill:#FFE872;}
	.st6{fill:#FFD317;}
	.st7{fill:#FFD92D;}
	.st8{fill:#15173F;}
</style>
<g>
	<polygon class="st0" points="353.7,86.7 375.5,86.7 375.4,86.9 400.9,176.3 379.3,176.3 	"/>
	<polygon class="st1" points="341.1,86.7 319.5,86.7 345.1,176.3 366.7,176.3 	"/>
	<polygon class="st2" points="396.5,115.5 407.3,153.2 426.3,86.7 404.5,86.7 404.6,86.9 	"/>
	<path class="st3" d="M283.5,139l-0.2-2.5h-19l0.2,2.9c0.7,10,3,19.9,6.7,29.2l17.5-7.3C285.9,154.2,284.1,146.7,283.5,139"/>
	<path class="st4" d="M372.9,216.3c-11.8,0-23.5-2.2-34.5-6.4l-7.2,17.6c13.3,5.2,27.4,7.8,41.7,7.8L372.9,216.3L372.9,216.3
		L372.9,216.3z"/>
	<path class="st0" d="M372.9,216.3v18.9c14.4,0,28.6-2.7,41.9-7.9l-7.3-17.6C396.5,214.1,384.7,216.3,372.9,216.3"/>
	<path class="st2" d="M288.7,161.4l-17.5,7.3c5.4,13.4,13.5,25.5,23.9,35.6l13.4-13.4C299.9,182.5,293.1,172.5,288.7,161.4"/>
	<path class="st5" d="M311.8,193.8c-1.1-1-2.2-2-3.3-3l-13.4,13.4c0.4,0.4,0.8,0.8,1.2,1.1c10.1,9.5,22,17,34.9,22.1l7.3-17.6
		C328.7,206.1,319.7,200.6,311.8,193.8"/>
	<path class="st6" d="M437.3,190.8l13.4,13.4c10.4-10.1,18.6-22.3,24-35.8l-17.5-7.2C452.7,172.4,445.9,182.4,437.3,190.8"/>
	<path class="st7" d="M434,193.8c-7.8,6.8-16.8,12.2-26.4,16l7.3,17.6c12.8-5.1,24.6-12.5,34.7-22c0.4-0.4,0.8-0.8,1.2-1.2
		l-13.4-13.4C436.2,191.8,435.1,192.8,434,193.8"/>
	<path class="st1" d="M481.3,126.4c0-0.3,0-0.6,0-0.8l-0.2-2.5H443V142h19c-0.8,6.6-2.4,13-4.8,19.2l17.5,7.2c3.7-9.3,5.9-19,6.6-29
		c0.2-2.4,0.2-4.7,0.2-6.9C481.5,130.5,481.4,128.5,481.3,126.4"/>
	<path class="st6" d="M308.5,62l-13.4-13.4c-10.4,10.1-18.6,22.3-24,35.8l17.5,7.2C293.1,80.4,299.9,70.3,308.5,62"/>
	<path class="st7" d="M311.8,59c7.8-6.8,16.8-12.2,26.4-16L331,25.5c-12.8,5.1-24.6,12.5-34.7,22c-0.4,0.4-0.8,0.8-1.2,1.2L308.5,62
		C309.6,61,310.7,60,311.8,59"/>
	<path class="st1" d="M283.8,110.8c0.8-6.6,2.4-13,4.9-19.2l-17.5-7.2c-3.7,9.3-5.9,19-6.6,29c-0.2,2.4-0.2,4.7-0.2,6.9
		c0,2,0.1,4.1,0.2,6.1c0,0.3,0,0.6,0,0.8l0.2,2.5h40.4v-19H283.8z"/>
	<path class="st3" d="M462.3,113.7l0.2,2.5h19l-0.2-2.9c-0.7-10-3-19.9-6.7-29.2l-17.5,7.3C459.9,98.6,461.7,106.1,462.3,113.7"/>
	<path class="st4" d="M372.9,36.5c11.8,0,23.5,2.2,34.4,6.4l7.3-17.6c-13.3-5.2-27.4-7.8-41.7-7.8h0L372.9,36.5L372.9,36.5z"/>
	<path class="st0" d="M372.9,36.5v-19c-14.3,0-28.6,2.7-41.9,7.9l7.3,17.5C349.3,38.7,361,36.5,372.9,36.5"/>
	<path class="st2" d="M457.1,91.4l17.5-7.3c-5.4-13.4-13.5-25.5-23.9-35.5L437.3,62C445.9,70.3,452.7,80.3,457.1,91.4"/>
	<path class="st5" d="M434,59c1.1,1,2.2,2,3.3,3l13.4-13.4c-0.4-0.4-0.8-0.8-1.2-1.1c-10.1-9.5-22-17-34.9-22.1l-7.3,17.6
		C417.1,46.7,426.1,52.1,434,59"/>
</g>
<g>
	<g>
		<g>
			<path class="st8" d="M216.7,410.1h-4.4v-1.7h6.3v8.6c-1.8,0.8-4.2,2.2-7.9,2.2c-5.9,0-10.9-4.3-10.9-11.2c0-6.9,5-11.1,10.9-11.1
				c2.5,0,5.3,0.9,7,2.1v2.1c-1.7-1.4-4-2.4-7-2.4c-5.2,0-8.9,3.7-8.9,9.3c0,5.6,3.7,9.4,8.9,9.4c2.4,0,4.4-0.5,5.9-1.5V410.1z"/>
			<path class="st8" d="M235,414.4c1.4,2.5,2.7,2.8,4.4,2.8c0.3,0,0.5,0,0.8,0v1.5c-0.5,0.1-1.1,0.1-1.6,0.1c-2.3,0-4.1-1.2-5.6-3.9
				l-2.7-5.2h-4v8.8h-2v-21.3h6.6c4.6,0,6.6,2.9,6.6,6.3c0,3-1.6,5.6-5.2,6.2L235,414.4z M235.6,403.5c0-2.2-1.1-4.5-4.6-4.5h-4.7v9
				h4.7C234.5,408.1,235.6,405.8,235.6,403.5z"/>
			<path class="st8" d="M242.3,418.6h-2l8.8-21.3h1.6l8.8,21.3h-2.1l-2.6-6.2h-10L242.3,418.6z M249.8,400.2l-4.3,10.5h8.6
				L249.8,400.2z"/>
			<path class="st8" d="M270,397.3c4.6,0,6.6,3.1,6.6,6.4c0,3.4-2,6.4-6.6,6.4h-4.7v8.5h-2v-21.3H270z M274.6,403.7
				c0-2.2-1.1-4.7-4.6-4.7h-4.7v9.4h4.7C273.5,408.4,274.6,406,274.6,403.7z"/>
			<path class="st8" d="M282.3,397.3v9.3h12.7v-9.3h2v21.3h-2v-10.4h-12.7v10.4h-2v-21.3H282.3z"/>
			<path class="st8" d="M304.7,397.3v21.3h-2v-21.3H304.7z"/>
			<path class="st8" d="M320.2,396.8c2.5,0,5.3,0.9,7,2.1v2.1c-1.7-1.4-4-2.4-7-2.4c-5.2,0-8.9,3.7-8.9,9.3c0,5.6,3.7,9.3,8.9,9.3
				c3,0,5.3-1,7-2.4v2.1c-1.7,1.3-4.5,2.1-7,2.1c-5.9,0-10.9-4.2-10.9-11.1C309.3,401.1,314.3,396.8,320.2,396.8z"/>
			<path class="st8" d="M345.2,397.3c8,0,11.4,4.8,11.4,10.7c0,5.9-3.4,10.7-11.4,10.7H339v-21.3L345.2,397.3L345.2,397.3z
				 M354.6,407.9c0-4.7-2.3-8.8-9.4-8.8h-4.3v17.6h4.3C352.3,416.8,354.6,412.6,354.6,407.9z"/>
			<path class="st8" d="M373.4,397.3v1.7h-10.1v7.5h8.4v1.7h-8.4v8.6h10.1v1.7h-12.1v-21.3H373.4z"/>
			<path class="st8" d="M377.7,414.7c1.4,1.3,3.6,2.6,6.3,2.6c2.6,0,4.8-1.6,4.8-4.1c0-2.4-1.2-3.8-5.2-4.9c-3.6-1-5.6-3.2-5.6-6.1
				c0-2.9,2.5-5.3,6.4-5.3c2.1,0,4.2,0.9,5.3,1.8l-0.4,1.7c-1.4-1-3.4-1.7-4.9-1.7c-2.8,0-4.4,1.5-4.4,3.6c0,1.7,1,3.3,4.4,4.2
				c4.2,1.1,6.4,3.2,6.4,6.6c0,4.1-3.4,6.1-6.8,6.1c-3.1,0-5.5-1.2-6.7-2.4L377.7,414.7z"/>
			<path class="st8" d="M397.3,397.3v21.3h-2v-21.3H397.3z"/>
			<path class="st8" d="M418.8,410.1h-4.4v-1.7h6.3v8.6c-1.8,0.8-4.2,2.2-7.9,2.2c-5.9,0-10.9-4.3-10.9-11.2c0-6.9,5-11.1,10.9-11.1
				c2.5,0,5.3,0.9,7,2.1v2.1c-1.7-1.4-4-2.4-7-2.4c-5.2,0-8.9,3.7-8.9,9.3c0,5.6,3.7,9.4,8.9,9.4c2.4,0,4.4-0.5,5.9-1.5L418.8,410.1
				L418.8,410.1z"/>
			<path class="st8" d="M427.8,397.3l12.9,17.4v-17.4h1.9v21.3h-1.4l-12.9-17.4v17.4h-1.9v-21.3H427.8z"/>
			<path class="st8" d="M455.3,418.6h-2l8.8-21.3h1.6l8.8,21.3h-2.1l-2.6-6.2h-10L455.3,418.6z M462.8,400.2l-4.3,10.5h8.6
				L462.8,400.2z"/>
			<path class="st8" d="M477.7,397.3l12.9,17.4v-17.4h1.9v21.3h-1.4l-12.9-17.4v17.4h-1.9v-21.3H477.7z"/>
			<path class="st8" d="M504.4,397.3c8,0,11.4,4.8,11.4,10.7c0,5.9-3.4,10.7-11.4,10.7h-6.3v-21.3L504.4,397.3L504.4,397.3z
				 M513.8,407.9c0-4.7-2.3-8.8-9.4-8.8h-4.3v17.6h4.3C511.5,416.8,513.8,412.6,513.8,407.9z"/>
			<path class="st8" d="M529.3,397.3v21.3h-2v-21.3H529.3z"/>
			<path class="st8" d="M537,397.3v19.6h10.1v1.7H535v-21.3H537z"/>
			<path class="st8" d="M552.8,397.3v19.6h10.1v1.7h-12.1v-21.3H552.8z"/>
			<path class="st8" d="M565.5,397.3h2v11.5c0,5.9,2.7,8.6,6.9,8.6s6.9-2.7,6.9-8.6v-11.5h2v11.5c0,7.2-3.6,10.4-8.9,10.4
				c-5.3,0-8.8-3.2-8.8-10.4V397.3z"/>
			<path class="st8" d="M588.2,414.7c1.4,1.3,3.6,2.6,6.3,2.6c2.6,0,4.8-1.6,4.8-4.1c0-2.4-1.2-3.8-5.2-4.9c-3.6-1-5.6-3.2-5.6-6.1
				c0-2.9,2.5-5.3,6.4-5.3c2.1,0,4.2,0.9,5.3,1.8l-0.4,1.7c-1.4-1-3.4-1.7-4.9-1.7c-2.8,0-4.4,1.5-4.4,3.6c0,1.7,1,3.3,4.4,4.2
				c4.2,1.1,6.4,3.2,6.4,6.6c0,4.1-3.4,6.1-6.8,6.1c-3.1,0-5.5-1.2-6.7-2.4L588.2,414.7z"/>
			<path class="st8" d="M603.2,399v-1.7h17.2v1.7h-7.6v19.6h-2V399H603.2z"/>
			<path class="st8" d="M634.7,414.4c1.4,2.5,2.7,2.8,4.4,2.8c0.3,0,0.5,0,0.8,0v1.5c-0.5,0.1-1.1,0.1-1.6,0.1
				c-2.3,0-4.1-1.2-5.6-3.9l-2.7-5.2h-4v8.8h-2v-21.3h6.6c4.6,0,6.6,2.9,6.6,6.3c0,3-1.6,5.6-5.2,6.2L634.7,414.4z M635.3,403.5
				c0-2.2-1.1-4.5-4.6-4.5H626v9h4.7C634.2,408.1,635.3,405.8,635.3,403.5z"/>
			<path class="st8" d="M642,418.6h-2l8.8-21.3h1.6l8.8,21.3h-2.1l-2.6-6.2h-10L642,418.6z M649.5,400.2l-4.3,10.5h8.6L649.5,400.2z
				"/>
			<path class="st8" d="M658.2,399v-1.7h17.2v1.7h-7.6v19.6h-2V399H658.2z"/>
			<path class="st8" d="M681.1,397.3v21.3h-2v-21.3H681.1z"/>
			<path class="st8" d="M696.7,396.7c6.3,0,10.9,4.7,10.9,11.2c0,6.5-4.7,11.2-10.9,11.2c-6.3,0-10.9-4.7-10.9-11.2
				C685.7,401.4,690.4,396.7,696.7,396.7z M696.7,398.6c-5.2,0-8.9,3.8-8.9,9.4s3.7,9.4,8.9,9.4c5.1,0,8.9-3.8,8.9-9.4
				S701.8,398.6,696.7,398.6z"/>
			<path class="st8" d="M713.6,397.3l12.9,17.4v-17.4h1.9v21.3H727l-12.9-17.4v17.4h-1.9v-21.3H713.6z"/>
		</g>
	</g>
	<g>
		<path d="M68.3,318.6c-1.6-13.2-8-19.5-16.2-19.5c-5.1,0-8.8,1.6-12,6.9c-3.1,5-4.9,12.8-4.9,22.2c0,8.3,1.5,15.6,3.9,20.4
			c2.7,5.3,6.5,8.2,12.1,8.2c4.2,0,5.7-1.6,6.1-5c0.3-2.9,0.4-8.6,0.4-13.3c-0.1-5.1-0.5-6-4.2-6.3l-4.9-0.5l-0.3-3
			c3.7,0.1,11.8,0.4,16,0.4c4.8,0,10.9-0.1,13.9-0.3l0.2,2.8c-4.1,0.6-5.1,1.2-5.3,3.2c-0.4,3.7-0.3,6.9-0.3,9.9
			c0,5.7,0.2,8.1,0.5,10.7c-2.4,0.6-6.2,1.7-9.4,2.5c-4,1.1-9.6,2.1-14.1,2.1c-13.2,0-21.2-3.3-26.4-10.3c-3.9-5-5.9-12.2-5.9-21.3
			c0-11.9,4.6-21.5,13-27.3c5.4-3.8,11.6-5.4,20.6-5.4c8.7,0,14.8,3,17,5l2-5l2.6,0.9c-0.8,3.5-1.8,13.8-1.4,21.8H68.3z"/>
		<path d="M132.1,349.1c-1.6,7.7-6.1,10.8-12.7,10.8c-5.6,0-8.4-2.5-9.5-6.8c-4.3,4.4-8.9,6.8-13.7,6.8c-7.9,0-12.4-4.9-12.4-12.4
			c0-4.6,2-7.5,5.5-8.8c6.5-2.6,15.6-5.1,20.5-8.2v-3.8c0-4.8-1.7-7.9-5.5-7.9c-4.2,0-6.2,2.4-6.2,6.5c0,1.1,0.1,2.1,0.3,3.1
			c0.2,1.1-0.2,2-1.1,2.7c-1.2,0.9-3.3,1.5-5,1.5c-3.2,0-6.3-1.4-6.3-5.2c0-5.4,8.2-11.6,20.5-11.6c9.9,0,14.1,3.9,15.6,6.2
			c0.9,1.3,1.4,3,1.4,4.7c0,2.5,0,18,0,23.9c0,3,0.8,3.6,1.9,3.6c1.4,0,3-2.4,3.9-6.2L132.1,349.1z M109.8,333.8
			c-1.9,1.1-5.1,2.6-7.6,4c-2.3,1.5-3.9,3-3.9,7.3c0,3.9,1.6,7.9,5.5,7.9c3,0,4.5-2.2,5.2-4c0.4-1,0.6-2.6,0.6-4.5L109.8,333.8z"/>
		<path d="M131.5,295c4.2,0,15.4-0.5,20.8-1.7c0,2.2-0.4,9.6-0.4,22.7v5.7c4.9-4,9.2-6.1,14.6-6.1c6.3,0,10.5,2.5,13.1,6.6
			c2.3,3.5,3.5,8.3,3.5,13.3c0,16-8.4,24.3-23.9,24.3c-4.4,0-9.8-1.3-12.6-2.8c-2.4,0.8-5.3,1.9-8.3,2.9l-0.7-0.5
			c0-5.2,0.2-13.9,0.2-25.1v-21.2c0-5.4-0.1-9.3-0.3-12.6c-0.1-2.2-0.7-2.5-5.9-2.5V295z M168.1,337.1c0-4.9-0.9-9.2-2.4-11.9
			c-1.3-2.4-3.2-3.8-5.9-3.8c-3,0-5.5,1.8-7.2,4.3c-0.8,1.3-1.1,2.4-1.1,14.7c0,10.5,0.5,11.2,1.3,12.5c1.4,2.5,3.7,3.8,6.1,3.8
			C164.9,356.6,168.1,350.3,168.1,337.1z"/>
		<path d="M186.6,295c4.2,0,15.4-0.5,20.8-1.7c0,2.2-0.4,9.6-0.4,22.7v5.7c4.9-4,9.2-6.1,14.6-6.1c6.3,0,10.5,2.5,13.1,6.6
			c2.3,3.5,3.5,8.3,3.5,13.3c0,16-8.4,24.3-23.9,24.3c-4.4,0-9.8-1.3-12.6-2.8c-2.4,0.8-5.3,1.9-8.3,2.9l-0.7-0.5
			c0-5.2,0.2-13.9,0.2-25.1v-21.2c0-5.4-0.1-9.3-0.3-12.6c-0.1-2.2-0.7-2.5-5.9-2.5V295z M223.2,337.1c0-4.9-0.9-9.2-2.4-11.9
			c-1.3-2.4-3.2-3.8-5.9-3.8c-3,0-5.5,1.8-7.2,4.3c-0.8,1.3-1.1,2.4-1.1,14.7c0,10.5,0.5,11.2,1.3,12.5c1.4,2.5,3.7,3.8,6.1,3.8
			C220,356.6,223.2,350.3,223.2,337.1z"/>
		<path d="M240.2,316.7c3.1,0.1,7.1,0.3,12.1,0.3c5.2,0,10.3-0.3,13-0.3l0.4,2.9l-2.9,0.5c-1.4,0.2-1.6,0.8-1.1,2.2
			c2.4,7.2,7.3,18.6,8.8,22.5c2-5.6,5.1-15.4,6.4-20.6c0.8-3,0.2-3.8-2.9-4.2l-3.3-0.5l0.1-2.9c2.4,0,5.8,0.3,9.1,0.3
			c2.6,0,6-0.3,8.8-0.3v2.9c-4.1,0.3-5.2,1-7.7,6.7c-3.9,9.6-10.4,27.1-14.8,39.6c-3.5,9.8-6.6,15.7-13.5,15.7
			c-4.2,0-7.3-2.6-7.3-6.8c0-4.1,2.9-6.2,5.7-6.2c1.8,0,2.8,0.8,3.3,1.9c0.8,1.8,1.4,2.7,3,2.7c2.9,0,5.3-9,6.3-12
			c-1-0.8-2.5-3.2-3.9-6.2c-4.6-11.4-10.6-25.8-13.3-31.3c-1.5-2.9-2.3-3.6-4.7-3.9l-1.9-0.3V316.7z"/>
		<path d="M376.4,297.1c3.6,0,7.4,0.4,11.6,0.4c4.2-0.1,6.4-0.4,10.1-0.4v3c-5.6,0.6-6.6,1.1-8.5,5.8c-4.2,11.6-11.6,35.8-16.6,53.4
			c-3.2-0.2-7,0-9.3,0.4c-2.8-11.1-8.7-30-13.4-46.5c-5.9,22.9-8.7,33.6-11.7,46.1c-1.9-0.2-7.2,0.2-9.4,0.4
			c-5-18.8-12.2-43.5-15.6-53.5c-1.8-5.3-3-5.9-8.4-6.1v-3c2.9,0,9.3,0.4,14.1,0.4c5.2,0,9.8-0.4,15.3-0.4l0.6,3l-4.8,0.7
			c-1.2,0.1-1.7,0.7-1.4,2.2c1.5,7.1,7.9,29.9,10.2,39c4.4-16.4,10.6-42,11.1-44.9c3.4,0.4,8.7,0.3,10.8,0c2,8.3,7.4,25.7,13.2,45.7
			c4.4-14.1,9.2-31.6,10.5-38.4c0.5-2.7-0.1-3.5-2-3.7l-5.7-0.6L376.4,297.1z"/>
		<path d="M422.2,358.8c-3.6,0-7.6-0.3-13.6-0.3c-6.5,0-9.3,0.3-12.3,0.3v-3c5-0.1,5.7-0.9,5.8-2.8c0.2-1.9,0.3-5.1,0.3-10.4V332
			c0-4.3,0-8-0.1-9.5c-0.2-1.6-0.9-2-5.3-1.8v-3.1c6.4-0.3,13.7-0.7,19.9-1.8c-0.1,2.3-0.3,6.2-0.3,15.5v11.6c0,5.4,0.1,7.7,0.3,9.9
			c0.1,2.3,0.9,2.8,5.3,3.1V358.8z M416.1,303.2c0,4.1-3.1,6.8-7.5,6.8c-4,0-7-2.6-7-6.7c0-4.3,2.9-7.4,7.3-7.4
			C413.4,296,416.1,298.6,416.1,303.2z"/>
		<path d="M426.5,355.8c4.6-0.2,5.1-0.6,5.3-3c0.2-3,0.3-6,0.3-10.6V333c0-4.7,0-8.3-0.3-10.9c-0.1-1.3-0.7-1.6-4.9-1.7l0.1-3
			c6.1,0,12.4-0.4,18.5-1.4c0.3,1.8,0.7,4.8,0.8,6.4c3.4-3.2,8-6.8,14.9-6.8c6.2,0,9.7,2.9,11.2,5.5c1,1.7,1.5,3.6,1.5,6V353
			c0,2,0.5,2.2,5.6,2.7l-0.1,3c-4,0-8-0.3-12.8-0.3c-6,0-9.8,0.3-11.6,0.3v-3c3.5-0.2,4.3-0.8,4.5-2.7c0.2-1.9,0.4-5.4,0.4-13.1
			c0-13.1-0.1-14.3-0.9-15.5c-0.9-1.6-2.1-2.5-4.4-2.5c-2.9,0-5.5,1.6-7.3,4.4c-0.8,1.2-1,2.3-1,4.2v12.3c0,3.6,0,7.8,0.2,10.5
			c0.1,1.7,1,2.2,4.9,2.5v3c-2.3,0-8-0.3-12.4-0.3c-5.3,0-9.5,0.3-12.4,0.3V355.8z"/>
		<path d="M509.7,294.8c4.9,0,16-0.8,21.3-1.4c-0.3,4.7-0.5,11.5-0.6,21.4l-0.1,21.7c0,7.1,0.1,12.2,0.4,16.4c0.2,1.7,0.7,2.4,2,2.4
			l4.1,0.1l-0.4,3c-5.8,0.2-14.8,0.5-20.3,1.6c0-1.9,0.1-4.6,0.1-6.3h-0.3c-3.8,3.5-8.2,6-13.5,6c-5.7,0-10.1-1.9-13.1-5.6
			c-2.7-3.5-4.5-8.6-4.5-15c0-12.8,7.1-23.5,22.9-23.5c3.5,0,6.9,0.8,8.4,1.8c0-6,0.1-12.3-0.2-16.7c-0.1-2.8-0.6-3.1-6.6-3.1
			L509.7,294.8z M502.6,349.8c1.6,2.6,3.9,3.8,6.4,3.8c2.7,0,4.7-1.2,6.3-3.7c0.6-1,0.9-2.4,0.9-12.1c0-11.4-0.2-13.6-0.7-14.6
			c-1-1.9-2.6-4.1-6.2-4.1c-6.1,0-9.4,7.4-9.4,17.9C499.9,341.9,500.7,346.8,502.6,349.8z"/>
		<path d="M540.5,294.8c6-0.1,17.3-1,19.7-1.4c-0.1,4.1-0.4,10.9-0.4,17.5v11.3c3.3-2.7,8.3-6.5,15.2-6.5c7.5,0,10.4,4.1,11.3,6
			c0.8,1.6,1.2,3.8,1.2,6.2c0,8.4-0.1,20.1-0.1,25c0,2.2,0.4,2.5,5.4,2.8v3c-3,0-7.5-0.3-12.3-0.3c-5.3,0-9.3,0.3-11.9,0.3l0.1-3
			c3.4-0.1,4.3-0.8,4.4-2.6c0.2-1.9,0.4-5.5,0.4-12.2c0-13.2-0.2-14.6-0.7-15.8c-0.7-1.8-2-3.4-4.7-3.4c-2.9,0-5.4,1.5-7.2,4.3
			c-0.9,1.4-1.1,2.7-1.1,4.4v10.6c0,4.9,0,9,0.2,11.6c0.1,2.6,0.8,3.1,4.7,3.3v3c-2.4,0-7.6-0.3-11.8-0.3c-6.6,0-10.1,0.3-12.9,0.3
			v-3c4.6-0.1,5.3-0.7,5.5-3.1c0.1-2.7,0.3-6.4,0.3-15v-26.4c0-7.1-0.1-9.6-0.2-11.6c-0.2-1.6-0.8-1.8-5.1-1.9L540.5,294.8z"/>
		<path d="M646.7,349.1c-1.6,7.7-6.1,10.8-12.7,10.8c-5.6,0-8.4-2.5-9.5-6.8c-4.3,4.4-8.9,6.8-13.7,6.8c-7.9,0-12.4-4.9-12.4-12.4
			c0-4.6,2-7.5,5.5-8.8c6.5-2.6,15.6-5.1,20.5-8.2v-3.8c0-4.8-1.7-7.9-5.5-7.9c-4.2,0-6.2,2.4-6.2,6.5c0,1.1,0.1,2.1,0.3,3.1
			c0.2,1.1-0.2,2-1.1,2.7c-1.2,0.9-3.3,1.5-5,1.5c-3.2,0-6.3-1.4-6.3-5.2c0-5.4,8.2-11.6,20.5-11.6c9.9,0,14.1,3.9,15.6,6.2
			c0.9,1.3,1.4,3,1.4,4.7c0,2.5,0,18,0,23.9c0,3,0.8,3.6,1.9,3.6c1.4,0,3-2.4,3.9-6.2L646.7,349.1z M624.4,333.8
			c-1.9,1.1-5.1,2.6-7.6,4c-2.3,1.5-3.9,3-3.9,7.3c0,3.9,1.6,7.9,5.5,7.9c3,0,4.5-2.2,5.2-4c0.4-1,0.6-2.6,0.6-4.5L624.4,333.8z"/>
		<path d="M654,333c0-4.7-0.1-8.2-0.3-11c-0.1-1.2-0.6-1.7-5.2-1.7l0.2-3c6,0,12.8-0.4,18.7-1.4c0.4,1.6,0.8,5,1,6.6
			c3.3-2.9,8.3-7,15.8-7c5.1,0,7.8,2.1,9,3.8c1,1.1,1.5,2.3,1.8,3.4c3.6-2.9,8.4-7.2,16-7.2c5.5,0,8.8,2.8,10.2,5.1
			c1.3,2.1,1.6,4.3,1.6,6.6V353c0,2.1,0.4,2.2,5.4,2.8l-0.1,3c-3.7,0-7.4-0.4-12.6-0.4c-5.5,0-9.5,0.4-11.8,0.4v-3
			c3.7-0.3,4.5-0.9,4.7-2.7c0.2-2.2,0.3-5.5,0.3-12.9c0.1-13.3-0.1-14.3-0.6-15.4c-0.8-1.7-2.1-2.8-4.5-2.8c-2.7,0-5.5,1.7-7.2,4.7
			c-0.7,1.3-1,2.5-1,4.2v12.9c0,4,0,7,0.1,9.4c0.2,1.9,1,2.3,4.9,2.6l-0.2,3c-2,0-7.5-0.3-12.3-0.3c-5.7,0-9.4,0.3-11.4,0.3v-3
			c3.4-0.3,4.4-0.7,4.5-3c0.2-2.8,0.3-6.2,0.3-11.6v-9.8c0-4.6,0-5.6-0.6-6.8c-0.7-1.5-2-2.5-4.2-2.5c-2.7,0-5.5,1.7-7.3,4.6
			c-0.9,1.4-1.2,2.8-1.2,4.7v12.6c0,4,0,6.7,0.3,9.3c0.1,1.9,0.9,2.3,4.7,2.6l-0.4,3c-1.9,0-7-0.3-11.6-0.3c-5.6,0-10,0.3-12.8,0.3
			v-3c4.8-0.2,5.3-0.5,5.4-3c0.2-2.4,0.3-6.3,0.3-11.1V333z"/>
	</g>
</g>
</svg>
