<?xml version="1.0" encoding="utf-8"?>
<!-- Generator: Adobe Illustrator 24.1.3, SVG Export Plug-In . SVG Version: 6.00 Build 0)  -->
<svg version="1.0" id="Layer_1" xmlns="http://www.w3.org/2000/svg" xmlns:xlink="http://www.w3.org/1999/xlink" x="0px" y="0px"
	 viewBox="0 0 884.7 213.61" style="enable-background:new 0 0 884.7 213.61;" xml:space="preserve">
<style type="text/css">
	.st0{fill:#FFDE44;}
	.st1{fill:#FFCE00;}
	.st2{fill:#FFEE88;}
	.st3{fill:#FFF39F;}
	.st4{fill:#FFE35B;}
	.st5{fill:#FFE872;}
	.st6{fill:#FFD317;}
	.st7{fill:#FFD92D;}
	.st8{fill:#15173F;}
	.st9{fill:#231F20;}
</style>
<g>
	<g>
		<polygon class="st0" points="84.54,80.48 98.94,80.48 98.89,80.67 115.8,139.84 101.51,139.84 		"/>
		<polygon class="st1" points="76.15,80.48 61.86,80.48 78.82,139.84 93.11,139.84 		"/>
		<polygon class="st2" points="112.86,99.58 120,124.59 132.6,80.48 118.2,80.48 118.26,80.67 		"/>
		<path class="st3" d="M37.99,115.18l-0.14-1.65H25.29l0.13,1.93c0.47,6.64,1.96,13.16,4.42,19.34l11.6-4.82
			C39.58,125.24,38.41,120.25,37.99,115.18"/>
		<path class="st4" d="M97.22,166.34c-7.81,0.01-15.54-1.43-22.82-4.26l-4.79,11.65c8.8,3.44,18.18,5.2,27.63,5.18v-12.57H97.22z"/>
		<path class="st0" d="M97.23,166.34v12.55c9.5,0.02,18.93-1.76,27.77-5.24l-4.83-11.62C112.87,164.88,105.08,166.35,97.23,166.34"
			/>
		<path class="st2" d="M41.44,129.98l-11.6,4.82c3.56,8.88,8.96,16.91,15.85,23.55l8.89-8.89
			C48.85,143.98,44.37,137.34,41.44,129.98"/>
		<path class="st5" d="M56.75,151.45c-0.74-0.65-1.46-1.31-2.17-1.99l-8.89,8.89c0.26,0.25,0.52,0.5,0.78,0.76
			c6.71,6.3,14.56,11.27,23.14,14.63l4.81-11.64C67.96,159.59,61.98,155.99,56.75,151.45"/>
		<path class="st6" d="M139.87,149.44l8.89,8.89c6.92-6.68,12.33-14.75,15.89-23.68l-11.61-4.8
			C150.11,137.25,145.62,143.94,139.87,149.44"/>
		<path class="st7" d="M137.68,151.45c-5.19,4.51-11.11,8.09-17.5,10.59l4.83,11.63c8.5-3.36,16.29-8.3,22.96-14.56
			c0.27-0.26,0.53-0.51,0.8-0.77l-8.89-8.89C139.17,150.13,138.44,150.79,137.68,151.45"/>
		<path class="st1" d="M169.06,106.81c0-0.18-0.02-0.37-0.03-0.55l-0.12-1.68h-25.24v12.55h12.58c-0.53,4.36-1.61,8.63-3.22,12.72
			l11.62,4.8c2.43-6.14,3.9-12.61,4.37-19.2c0.11-1.57,0.16-3.11,0.16-4.6C169.18,109.56,169.13,108.18,169.06,106.81"/>
		<path class="st6" d="M54.59,64.17l-8.89-8.89c-6.92,6.68-12.33,14.75-15.89,23.68l11.61,4.8C44.35,76.35,48.84,69.67,54.59,64.17"
			/>
		<path class="st7" d="M56.78,62.16c5.19-4.51,11.11-8.09,17.5-10.59l-4.83-11.63c-8.5,3.36-16.29,8.3-22.96,14.56
			c-0.27,0.26-0.53,0.51-0.8,0.77l8.89,8.89C55.3,63.48,56.03,62.81,56.78,62.16"/>
		<path class="st1" d="M38.22,96.48c0.53-4.36,1.61-8.64,3.21-12.72l-11.62-4.8c-2.43,6.14-3.9,12.61-4.37,19.2
			c-0.11,1.57-0.16,3.11-0.16,4.6c0,1.31,0.05,2.69,0.13,4.05c0,0.18,0.02,0.37,0.03,0.55l0.12,1.68h26.76V96.48H38.22z"/>
		<path class="st3" d="M156.47,98.43l0.14,1.65h12.57l-0.13-1.93c-0.47-6.64-1.96-13.16-4.42-19.34l-11.6,4.82
			C154.89,88.37,156.05,93.35,156.47,98.43"/>
		<path class="st4" d="M97.25,47.26c7.8-0.01,15.54,1.43,22.82,4.26l4.81-11.64c-8.8-3.44-18.17-5.2-27.63-5.18h-0.02v12.55H97.25z"
			/>
		<path class="st0" d="M97.23,47.26V34.7c-9.5-0.02-18.93,1.76-27.77,5.24l4.83,11.62C81.6,48.71,89.38,47.25,97.23,47.26"/>
		<path class="st2" d="M153.02,83.63l11.6-4.82c-3.56-8.88-8.96-16.91-15.85-23.55l-8.89,8.89
			C145.61,69.63,150.09,76.27,153.02,83.63"/>
		<path class="st5" d="M137.71,62.16c0.75,0.65,1.47,1.31,2.17,1.99l8.89-8.89c-0.26-0.25-0.52-0.5-0.78-0.76
			c-6.71-6.3-14.55-11.26-23.12-14.62l-4.81,11.64C126.52,54.02,132.49,57.62,137.71,62.16"/>
	</g>
	<g>
		<g>
			<path class="st8" d="M380.33,147.62h-4.04v-1.61h5.85v7.92c-1.64,0.76-3.85,2.04-7.3,2.04c-5.49,0-10.09-3.98-10.09-10.36
				c0-6.38,4.6-10.29,10.09-10.29c2.33,0,4.9,0.79,6.48,1.97v1.91c-1.61-1.25-3.68-2.2-6.48-2.2c-4.77,0-8.22,3.45-8.22,8.61
				c0,5.16,3.45,8.68,8.22,8.68c2.2,0,4.04-0.46,5.49-1.35V147.62z"/>
			<path class="st8" d="M397.16,151.6c1.25,2.27,2.47,2.6,4.08,2.6c0.26,0,0.49,0,0.76-0.03v1.41c-0.49,0.1-0.99,0.13-1.45,0.13
				c-2.1,0-3.81-1.09-5.16-3.62l-2.53-4.77h-3.68v8.15h-1.81v-19.73h6.12c4.24,0,6.08,2.7,6.08,5.79c0,2.79-1.48,5.2-4.8,5.69
				L397.16,151.6z M397.76,141.54c0-2.04-1.02-4.18-4.27-4.18h-4.31v8.35h4.31C396.74,145.71,397.76,143.61,397.76,141.54z"/>
			<path class="st8" d="M403.97,155.48h-1.87l8.15-19.73h1.48l8.15,19.73h-1.97l-2.37-5.72h-9.24L403.97,155.48z M410.91,138.45
				l-3.95,9.7h7.92L410.91,138.45z"/>
			<path class="st8" d="M429.51,135.75c4.24,0,6.08,2.86,6.08,5.95c0,3.12-1.84,5.95-6.08,5.95h-4.31v7.82h-1.81v-19.73H429.51z
				 M433.79,141.7c0-2.04-1.02-4.34-4.27-4.34h-4.31v8.68h4.31C432.77,146.04,433.79,143.77,433.79,141.7z"/>
			<path class="st8" d="M440.92,135.75v8.55h11.77v-8.55h1.81v19.73h-1.81v-9.57h-11.77v9.57h-1.81v-19.73H440.92z"/>
			<path class="st8" d="M461.57,135.75v19.73h-1.81v-19.73H461.57z"/>
			<path class="st8" d="M475.97,135.33c2.33,0,4.9,0.79,6.48,1.97v1.91c-1.61-1.25-3.68-2.2-6.48-2.2c-4.77,0-8.22,3.45-8.22,8.61
				c0,5.16,3.45,8.61,8.22,8.61c2.79,0,4.87-0.95,6.48-2.2v1.91c-1.58,1.18-4.14,1.97-6.48,1.97c-5.49,0-10.09-3.91-10.09-10.29
				C465.87,139.24,470.48,135.33,475.97,135.33z"/>
			<path class="st8" d="M499.05,135.75c7.4,0,10.55,4.44,10.55,9.86c0,5.42-3.16,9.86-10.55,9.86h-5.79v-19.73H499.05z
				 M507.73,145.62c0-4.31-2.14-8.15-8.65-8.15h-4.01v16.31h4.01C505.59,153.77,507.73,149.92,507.73,145.62z"/>
			<path class="st8" d="M525.08,135.75v1.61h-9.37v6.94h7.73v1.61h-7.73v7.96h9.37v1.61h-11.18v-19.73H525.08z"/>
			<path class="st8" d="M529.06,151.9c1.25,1.22,3.32,2.4,5.79,2.4c2.43,0,4.41-1.48,4.41-3.81c0-2.2-1.09-3.55-4.83-4.57
				c-3.35-0.92-5.2-2.96-5.2-5.65c0-2.7,2.33-4.93,5.95-4.93c1.91,0,3.85,0.82,4.93,1.64l-0.4,1.55c-1.31-0.92-3.12-1.58-4.54-1.58
				c-2.56,0-4.11,1.38-4.11,3.32c0,1.61,0.92,3.03,4.11,3.88c3.85,1.02,5.92,2.93,5.92,6.12c0,3.75-3.19,5.65-6.25,5.65
				c-2.86,0-5.06-1.15-6.15-2.2L529.06,151.9z"/>
			<path class="st8" d="M547.18,135.75v19.73h-1.81v-19.73H547.18z"/>
			<path class="st8" d="M567.07,147.62h-4.04v-1.61h5.85v7.92c-1.64,0.76-3.85,2.04-7.3,2.04c-5.49,0-10.09-3.98-10.09-10.36
				c0-6.38,4.6-10.29,10.09-10.29c2.33,0,4.9,0.79,6.48,1.97v1.91c-1.61-1.25-3.68-2.2-6.48-2.2c-4.77,0-8.22,3.45-8.22,8.61
				c0,5.16,3.45,8.68,8.22,8.68c2.2,0,4.04-0.46,5.49-1.35V147.62z"/>
			<path class="st8" d="M575.35,135.75l11.93,16.08v-16.08H589v19.73h-1.25l-11.93-16.08v16.08h-1.71v-19.73H575.35z"/>
			<path class="st8" d="M600.76,155.48h-1.87l8.15-19.73h1.48l8.15,19.73h-1.97l-2.37-5.72h-9.24L600.76,155.48z M607.7,138.45
				l-3.94,9.7h7.92L607.7,138.45z"/>
			<path class="st8" d="M621.48,135.75l11.93,16.08v-16.08h1.71v19.73h-1.25l-11.93-16.08v16.08h-1.71v-19.73H621.48z"/>
			<path class="st8" d="M646.17,135.75c7.4,0,10.55,4.44,10.55,9.86c0,5.42-3.16,9.86-10.55,9.86h-5.79v-19.73H646.17z
				 M654.85,145.62c0-4.31-2.14-8.15-8.65-8.15h-4.01v16.31h4.01C652.71,153.77,654.85,149.92,654.85,145.62z"/>
			<path class="st8" d="M669.18,135.75v19.73h-1.81v-19.73H669.18z"/>
			<path class="st8" d="M676.25,135.75v18.12h9.37v1.61h-11.18v-19.73H676.25z"/>
			<path class="st8" d="M690.84,135.75v18.12h9.37v1.61h-11.18v-19.73H690.84z"/>
			<path class="st8" d="M702.65,135.75h1.81v10.62c0,5.46,2.53,7.92,6.35,7.92s6.38-2.47,6.38-7.92v-10.62h1.81v10.59
				c0,6.64-3.29,9.63-8.19,9.63s-8.15-2.99-8.15-9.63V135.75z"/>
			<path class="st8" d="M723.62,151.9c1.25,1.22,3.32,2.4,5.79,2.4c2.43,0,4.41-1.48,4.41-3.81c0-2.2-1.09-3.55-4.83-4.57
				c-3.35-0.92-5.2-2.96-5.2-5.65c0-2.7,2.33-4.93,5.95-4.93c1.91,0,3.85,0.82,4.93,1.64l-0.4,1.55c-1.31-0.92-3.12-1.58-4.54-1.58
				c-2.56,0-4.11,1.38-4.11,3.32c0,1.61,0.92,3.03,4.11,3.88c3.85,1.02,5.92,2.93,5.92,6.12c0,3.75-3.19,5.65-6.25,5.65
				c-2.86,0-5.06-1.15-6.15-2.2L723.62,151.9z"/>
			<path class="st8" d="M737.43,137.36v-1.61h15.88v1.61h-7.04v18.12h-1.81v-18.12H737.43z"/>
			<path class="st8" d="M766.53,151.6c1.25,2.27,2.47,2.6,4.08,2.6c0.26,0,0.49,0,0.76-0.03v1.41c-0.49,0.1-0.99,0.13-1.45,0.13
				c-2.1,0-3.81-1.09-5.16-3.62l-2.53-4.77h-3.68v8.15h-1.81v-19.73h6.12c4.24,0,6.08,2.7,6.08,5.79c0,2.79-1.48,5.2-4.8,5.69
				L766.53,151.6z M767.12,141.54c0-2.04-1.02-4.18-4.27-4.18h-4.31v8.35h4.31C766.1,145.71,767.12,143.61,767.12,141.54z"/>
			<path class="st8" d="M773.33,155.48h-1.87l8.15-19.73h1.48l8.15,19.73h-1.97l-2.37-5.72h-9.24L773.33,155.48z M780.27,138.45
				l-3.95,9.7h7.92L780.27,138.45z"/>
			<path class="st8" d="M788.32,137.36v-1.61h15.88v1.61h-7.04v18.12h-1.81v-18.12H788.32z"/>
			<path class="st8" d="M809.43,135.75v19.73h-1.81v-19.73H809.43z"/>
			<path class="st8" d="M823.83,135.26c5.79,0,10.09,4.34,10.09,10.36c0,6.05-4.31,10.36-10.09,10.36
				c-5.82,0-10.09-4.31-10.09-10.36C813.74,139.6,818.01,135.26,823.83,135.26z M823.83,136.94c-4.77,0-8.22,3.49-8.22,8.68
				c0,5.19,3.45,8.68,8.22,8.68c4.7,0,8.22-3.49,8.22-8.68C832.05,140.42,828.53,136.94,823.83,136.94z"/>
			<path class="st8" d="M839.48,135.75l11.93,16.08v-16.08h1.71v19.73h-1.25l-11.93-16.08v16.08h-1.71v-19.73H839.48z"/>
		</g>
		<g>
			<path class="st9" d="M250.11,76.76c-1.45-11.73-7.39-17.59-14.38-17.59c-4.42,0-6.91,1.61-9,5.06
				c-2.81,4.34-4.42,11.41-4.42,21.21c0,7.87,1.29,14.78,3.37,18.72c2.01,4.18,4.42,6.26,8.67,6.26c2.89,0,3.69-1.29,4.02-4.1
				c0.32-2.49,0.4-9.08,0.4-13.01c-0.08-4.82-0.48-5.62-2.89-5.78l-3.69-0.32l-0.32-1.04c2.57,0,10.36,0.24,13.41,0.24
				c4.1,0,9.48-0.16,11.57-0.24l0.24,0.88c-3.45,0.48-3.86,0.96-4.18,3.05c-0.32,3.29-0.4,5.46-0.4,8.27c0,4.82,0.16,6.67,0.32,9.4
				c-2.09,0.48-4.58,1.29-7.15,2.09c-3.94,1.12-8.51,1.93-11.97,1.93c-11.33,0-18.31-2.57-22.65-8.43
				c-3.37-4.34-4.9-10.36-4.9-18.07c0-9.56,3.69-17.91,10.6-22.81c3.94-2.89,9.32-4.58,17.99-4.58c7.15,0,12.77,2.41,15.18,4.66
				l1.53-4.9l0.8,0.56c-0.48,2.57-1.45,12.37-1.04,18.55H250.11z"/>
			<path class="st9" d="M309.87,110.73c-2.41-0.08-7.47-0.32-13.09-0.32c-5.38,0-8.35,0.24-12.61,0.32l0.24-1.04
				c3.86-0.56,4.34-0.72,4.02-2.49c-0.24-2.09-2.41-10.36-3.94-16.87c-1.93-0.08-4.26-0.08-6.35-0.08c-2.17,0-4.5,0-6.59,0.08
				c-2.73,9.48-3.69,13.25-3.86,14.78c-0.4,3.21,0.8,4.02,6.91,4.58l-0.4,1.04c-1.85,0-4.34-0.32-7.71-0.32
				c-2.25,0-6.1,0.32-8.84,0.32v-1.04c4.18-0.48,5.54-1.04,7.07-5.06c3.13-8.03,11.08-33.66,13.17-40.64
				c0.64-1.85,0.64-2.73,0.72-4.18c2.17,0.08,10.04-0.56,11.81-1.61c2.25,9.08,11.17,42.97,14.14,49.16
				c0.56,1.29,1.45,1.85,2.49,1.93l2.81,0.4L309.87,110.73z M272.2,88.57c1.85,0,4.1,0.08,6.1,0.08s4.18-0.08,5.7-0.08
				c-1.53-6.83-3.77-16.23-5.22-22.41C277.5,70.41,275.65,76.28,272.2,88.57z"/>
			<path class="st9" d="M311.07,109.69c4.42-0.32,5.7-0.48,5.86-2.33c0.24-2.17,0.48-7.95,0.48-16.23V75.79
				c0-8.35,0-10.76-0.24-13.57c-0.16-1.53-1.45-1.93-6.19-2.25l-0.16-1.04c2.65,0,8.35,0.32,12.61,0.32c3.29,0,12.05-0.32,15.5-0.32
				c8.03,0,10.12,0.64,12.69,2.49c2.57,1.85,3.53,5.06,3.53,8.51c0,5.38-2.81,8.43-6.27,10.04c-2.41,1.12-5.46,1.85-9.4,2.41v0.64
				c6.18,0.4,10.44,1.29,13.57,3.21c3.13,1.85,4.82,4.9,4.82,9.64c0,4.74-1.85,8.35-4.74,10.6c-3.94,3.05-9.88,4.1-18.23,4.1
				c-3.94,0-7.71-0.16-11.57-0.16c-4.1,0-9.16,0.32-12.37,0.32L311.07,109.69z M331.47,82.3c0.64,0.08,1.77,0.08,2.81,0.08
				c4.26,0,6.51-2.49,6.51-11.17c0-3.61-0.4-5.94-1.37-7.95s-2.81-3.05-5.3-3.05c-1.85,0-2.33,0.4-2.33,1.37
				c-0.08,2.49-0.32,5.7-0.32,10.12V82.3z M331.47,95.15c0,6.83,0,10.6,0.24,12.85c0.08,0.8,0.8,1.37,2.89,1.37
				c2.97,0,4.66-1.12,5.86-3.13c1.29-2.01,2.09-5.78,2.09-10.52c0-4.42-0.48-7.39-1.85-9.4c-1.21-1.85-3.29-2.65-6.43-2.65
				c-0.96,0-2.25,0.08-2.81,0.24V95.15z"/>
			<path class="st9" d="M362.56,109.69c4.42-0.32,5.7-0.48,5.86-2.33c0.24-2.17,0.48-7.95,0.48-16.23V75.79
				c0-8.35,0-10.76-0.24-13.57c-0.16-1.53-1.45-1.93-6.19-2.25l-0.16-1.04c2.65,0,8.35,0.32,12.61,0.32c3.29,0,12.05-0.32,15.5-0.32
				c8.03,0,10.12,0.64,12.69,2.49c2.57,1.85,3.53,5.06,3.53,8.51c0,5.38-2.81,8.43-6.27,10.04c-2.41,1.12-5.46,1.85-9.4,2.41v0.64
				c6.18,0.4,10.44,1.29,13.57,3.21c3.13,1.85,4.82,4.9,4.82,9.64c0,4.74-1.85,8.35-4.74,10.6c-3.94,3.05-9.88,4.1-18.23,4.1
				c-3.94,0-7.71-0.16-11.57-0.16c-4.1,0-9.16,0.32-12.37,0.32L362.56,109.69z M382.96,82.3c0.64,0.08,1.77,0.08,2.81,0.08
				c4.26,0,6.51-2.49,6.51-11.17c0-3.61-0.4-5.94-1.37-7.95s-2.81-3.05-5.3-3.05c-1.85,0-2.33,0.4-2.33,1.37
				c-0.08,2.49-0.32,5.7-0.32,10.12V82.3z M382.96,95.15c0,6.83,0,10.6,0.24,12.85c0.08,0.8,0.8,1.37,2.89,1.37
				c2.97,0,4.66-1.12,5.86-3.13c1.29-2.01,2.09-5.78,2.09-10.52c0-4.42-0.48-7.39-1.85-9.4c-1.21-1.85-3.29-2.65-6.43-2.65
				c-0.96,0-2.25,0.08-2.81,0.24V95.15z"/>
			<path class="st9" d="M448.98,110.73c-3.77,0-10.2-0.32-14.54-0.32c-6.91,0-10.36,0.32-14.06,0.32l-0.24-1.04
				c1.85-0.16,3.21-0.4,4.66-0.56c1.85-0.24,2.81-0.8,2.97-2.89c0.24-3.05,0.32-12.13,0.4-17.51c0-0.88-0.08-1.77-0.64-3.13
				c-1.85-4.5-7.39-15.98-11.17-21.77c-2.01-3.05-2.57-3.78-6.43-3.86l-0.08-1.04c2.17,0,8.75,0.32,12.93,0.32
				c6.43,0,10.6-0.32,13.17-0.32l0.24,1.04l-3.37,0.4c-1.37,0.16-1.29,0.96-0.72,2.41c1.12,2.89,6.27,14.06,9.4,20.96
				c4.18-9.32,7.07-16.06,8.35-20.08c0.8-2.57,0.08-3.05-1.12-3.21c-1.29-0.16-3.13-0.32-4.58-0.48l0.08-1.04
				c1.61,0,4.66,0.32,8.11,0.32c3.61,0,5.06-0.32,7.79-0.32l0.32,1.04c-4.42,0.24-5.62,0.64-7.55,3.78
				c-2.81,4.98-6.91,14.06-9.96,20.56c-0.72,1.53-0.72,2.49-0.72,3.94c-0.16,5.46,0,15.34,0.4,19.12c0.16,1.04,0.48,1.61,1.53,1.69
				c1.12,0.16,2.57,0.32,4.58,0.64L448.98,110.73z"/>
			<path class="st9" d="M530.11,58.93c2.65,0,6.02,0.32,8.51,0.32c3.86-0.08,5.3-0.32,7.39-0.32v1.04c-4.5,0.56-5.14,1.21-6.75,5.22
				c-4.98,13.98-9.88,31.17-14.22,45.86c-3.61,0-5.78,0-7.31,0.32c-2.33-9.08-7.47-25.06-11.25-38.8
				c-4.58,18.8-6.83,28.11-9.16,38.47c-2.17,0-6.02,0.16-7.47,0.32c-4.42-16.87-9.96-36.31-13.25-45.38
				c-1.85-5.22-2.41-5.78-6.59-6.02v-1.04c2.33,0,8.35,0.32,12.05,0.32c4.74,0,8.59-0.32,13.01-0.32l0.48,1.04l-3.45,0.48
				c-1.04,0.16-1.61,0.48-1.29,2.01c1.12,5.62,6.75,25.14,8.59,32.53c2.81-11.49,7.71-34.06,8.03-36.06
				c2.57,0.32,7.55,0.24,9.56,0.08c2.01,8.27,6.26,21.53,10.76,36.87c2.89-9.08,7.55-25.06,8.92-32.21
				c0.48-2.57-0.08-3.05-1.69-3.21l-4.5-0.48L530.11,58.93z"/>
			<path class="st9" d="M551.87,78.28c0-10.2-0.16-13.98-0.32-15.82c-0.24-2.01-1.45-2.25-5.54-2.49l0.16-1.04
				c2.65,0,7.47,0.32,13.17,0.32c4.74,0,9.72-0.32,12.21-0.32l0.24,1.04c-4.18,0.32-5.3,0.56-5.46,2.49
				c-0.16,2.01-0.4,6.83-0.4,15.82V91.3c0,9.24,0.32,13.81,0.48,15.82c0.16,2.01,1.29,2.25,5.46,2.57l-0.16,1.04
				c-2.81,0-7.71-0.32-12.77-0.32c-5.46,0-10.6,0.32-13.17,0.32l0.16-1.04c4.1-0.32,5.3-0.56,5.54-2.57
				c0.16-1.85,0.4-7.47,0.4-15.82V78.28z"/>
			<path class="st9" d="M575.81,58.93c1.04,0,5.86,0.32,10.6,0.32c4.02,0,5.94-0.08,8.84-0.32c0.72,1.37,1.85,3.21,4.02,6.75
				c2.33,3.94,7.87,12.45,18.63,28.35c0-18.15-0.4-27.87-0.64-30.12c-0.4-2.65-1.04-3.45-4.26-3.69l-2.97-0.24l0.4-1.04
				c2.57,0,5.78,0.32,8.52,0.32c2.73,0,6.1-0.32,7.79-0.32v0.96c-1.04,0.24-2.57,0.32-3.54,0.56c-1.45,0.4-2.01,1.37-2.41,3.05
				c-0.72,3.37-1.37,14.62-1.37,28.19v18.71c-1.61,0-6.11,0.48-8.03,0.88c-6.83-11.17-18.96-30.84-27.23-44.34
				c0,23.78,0.32,35.26,0.72,38.88c0.24,2.09,1.45,2.89,2.81,3.13c1.21,0.24,3.05,0.56,4.66,0.72l-0.16,1.04
				c-2.25,0-5.62-0.32-10.12-0.32c-3.77,0-5.22,0.32-6.91,0.32l0.08-1.04c0.72,0,1.69-0.24,3.13-0.4c1.77-0.4,2.65-1.45,3.05-4.58
				c0.32-2.89,1.37-14.62,1.37-39.6c-0.56-1.04-0.88-1.69-1.61-2.81c-0.8-1.2-1.53-1.69-2.57-1.85l-2.81-0.48V58.93z"/>
			<path class="st9" d="M634.92,76.44c0-8.19-0.24-12.21-0.32-13.98c-0.08-1.69-1.04-2.01-2.41-2.17l-3.61-0.32l0.08-1.04
				c1.77,0,8.19,0.32,12.61,0.32c4.26,0,9.64-0.32,13.97-0.32c9.24,0,13.33,1.2,16.31,3.05c6.43,3.94,9.32,11.17,9.32,20.96
				c0,10.6-3.45,20.8-13.33,25.14c-3.53,1.61-8.35,2.57-14.62,2.57c-4.42,0-8.84-0.24-13.25-0.24c-5.46,0-9.4,0.32-11.41,0.32
				l0.08-1.04l3.38-0.24c2.09-0.16,2.57-0.96,2.65-2.33c0.16-1.77,0.56-9,0.56-17.75V76.44z M648.9,89.85
				c0,12.69,0.08,16.06,0.32,17.99c0.16,1.04,0.56,1.53,2.65,1.53c5.3,0,8.03-1.85,9.8-4.5c2.09-3.13,4.18-9.72,4.18-21.21
				c0-10.04-1.53-16.47-4.18-19.84c-2.17-2.57-5.14-3.61-8.75-3.61c-3.29,0-3.46,0.72-3.7,2.01c-0.08,1.21-0.32,4.74-0.32,15.1
				V89.85z"/>
			<path class="st9" d="M693.07,78.69c0-8.51,0-13.57-0.24-16.22c-0.08-2.01-1.77-2.41-5.46-2.49l0.08-1.04
				c2.41,0,9.08,0.32,11.89,0.32c3.05,0,10.12-0.32,12.77-0.32l-0.16,1.04c-3.45,0-4.1,0.48-4.42,2.73
				c-0.24,2.33-0.4,8.03-0.4,13.98v5.94c1.85,0,4.02,0.08,6.67,0.08s5.46-0.08,8.59-0.08v-7.47c0-7.23-0.16-10.2-0.32-13.01
				c-0.08-1.77-1.77-2.09-5.06-2.17l0.08-1.04c2.65,0.08,9.72,0.32,12.05,0.32c4.18,0,11.24-0.24,12.85-0.32v1.04
				c-3.86,0.16-5.06,0.56-5.14,2.17c-0.08,2.89-0.4,9.08-0.4,15.34v12.05c0,8.67,0.24,16.31,0.56,18.39
				c0.08,1.04,1.21,1.53,5.46,1.77l-0.32,0.96c-2.01,0-7.31-0.24-12.85-0.24c-5.38,0-10.36,0.24-12.77,0.24l0.08-0.96
				c3.78-0.48,5.22-0.88,5.38-2.65c0.08-1.77,0.4-6.51,0.4-14.78v-7.79c-2.49-0.08-5.54-0.08-8.35-0.08c-2.81,0-5.06,0-6.91,0.08
				v7.39c0,6.59,0.16,13.41,0.32,15.26c0.16,1.85,1.61,2.41,5.46,2.57l0,1.04c-3.05,0-8.51-0.32-13.57-0.32
				c-4.02,0-9.24,0.32-12.61,0.32v-1.04c4.02-0.16,5.7-0.72,5.86-2.73c0.16-1.77,0.48-5.78,0.48-15.26V78.69z"/>
			<path class="st9" d="M794.92,110.73c-2.41-0.08-7.47-0.32-13.09-0.32c-5.38,0-8.35,0.24-12.61,0.32l0.24-1.04
				c3.86-0.56,4.34-0.72,4.02-2.49c-0.24-2.09-2.41-10.36-3.94-16.87c-1.93-0.08-4.26-0.08-6.34-0.08c-2.17,0-4.5,0-6.59,0.08
				c-2.73,9.48-3.69,13.25-3.86,14.78c-0.4,3.21,0.8,4.02,6.91,4.58l-0.4,1.04c-1.85,0-4.34-0.32-7.71-0.32
				c-2.25,0-6.1,0.32-8.83,0.32v-1.04c4.18-0.48,5.54-1.04,7.07-5.06c3.13-8.03,11.08-33.66,13.17-40.64
				c0.64-1.85,0.64-2.73,0.72-4.18c2.17,0.08,10.04-0.56,11.81-1.61c2.25,9.08,11.16,42.97,14.14,49.16
				c0.56,1.29,1.45,1.85,2.49,1.93l2.81,0.4V110.73z M757.25,88.57c1.85,0,4.1,0.08,6.11,0.08s4.18-0.08,5.7-0.08
				c-1.53-6.83-3.78-16.23-5.22-22.41C762.55,70.41,760.7,76.28,757.25,88.57z"/>
			<path class="st9" d="M796.28,58.93c5.3,0.32,8.75,0.32,11.08,0.32c4.34,0,7.79-0.16,9.24-0.32c1.53,5.22,7.63,19.68,12.29,32.29
				c3.69-10.68,9.32-28.83,10.28-32.29c1.77,0.32,4.1,0.32,8.6,0.32c4.9,0,8.67-0.32,10.92-0.32l0.24,1.04
				c-1.21,0.16-3.61,0.4-4.58,0.48c-1.04,0.16-1.45,1.04-1.45,2.17c0,1.69,0.08,5.06,0,10.28c-0.08,16.14,0.16,29.32,0.4,33.49
				c0.16,2.17,0.8,2.73,2.33,2.89l3.78,0.4v1.04c-1.69-0.08-8.76-0.32-12.85-0.32c-4.82,0-9.8,0.24-13.17,0.32l0.16-1.04
				c3.86-0.32,4.98-0.64,5.06-2.41c0.24-3.77,0.56-23.13,0.96-44.42h-0.08c-6.51,20.96-11.65,40.08-13.73,46.67l-6.03,1.37
				c-2.65-9.32-11.49-33.9-15.9-47.23h-0.16c0,19.36,0.4,30.6,0.56,38.79c0.08,5.3,1.12,6.35,3.37,6.59l4.26,0.64l-0.48,1.04
				c-1.69,0-5.78-0.32-9.4-0.32c-3.13,0-5.62,0.32-6.91,0.32v-1.04c0.96-0.16,1.61-0.24,2.81-0.48c2.09-0.32,3.29-1.37,3.54-6.99
				c0.32-5.78,0.88-20.64,0.88-39.76l-0.32-0.88c-0.24-0.48-0.8-1.12-2.01-1.21l-3.78-0.32L796.28,58.93z"/>
		</g>
	</g>
</g>
</svg>
